<?xml version="1.0" encoding="UTF-8" standalone="no"?>
<!-- Generator: Adobe Illustrator 23.0.0, SVG Export Plug-In . SVG Version: 6.00 Build 0)  -->

<svg
   xmlns:dc="http://purl.org/dc/elements/1.1/"
   xmlns:cc="http://creativecommons.org/ns#"
   xmlns:rdf="http://www.w3.org/1999/02/22-rdf-syntax-ns#"
   xmlns:svg="http://www.w3.org/2000/svg"
   xmlns="http://www.w3.org/2000/svg"
   xmlns:sodipodi="http://sodipodi.sourceforge.net/DTD/sodipodi-0.dtd"
   xmlns:inkscape="http://www.inkscape.org/namespaces/inkscape"
   version="1.1"
   id="Camada_1"
   x="0px"
   y="0px"
   viewBox="0 0 1159.3744 165.67339"
   xml:space="preserve"
   sodipodi:docname="logo_only2.svg"
   inkscape:version="0.92.4 (5da689c313, 2019-01-14)"
   width="1159.3744"
   height="165.67339"><metadata
   id="metadata4201"><rdf:RDF><cc:Work
       rdf:about=""><dc:format>image/svg+xml</dc:format><dc:type
         rdf:resource="http://purl.org/dc/dcmitype/StillImage" /><dc:title></dc:title></cc:Work></rdf:RDF></metadata><defs
   id="defs4199" /><sodipodi:namedview
   pagecolor="#ffffff"
   bordercolor="#666666"
   borderopacity="1"
   objecttolerance="10"
   gridtolerance="10"
   guidetolerance="10"
   inkscape:pageopacity="0"
   inkscape:pageshadow="2"
   inkscape:window-width="1920"
   inkscape:window-height="1017"
   id="namedview4197"
   showgrid="true"
   inkscape:zoom="0.95"
   inkscape:cx="591.52377"
   inkscape:cy="2.1264936"
   inkscape:window-x="1672"
   inkscape:window-y="-8"
   inkscape:window-maximized="1"
   inkscape:current-layer="Camada_1"><inkscape:grid
     type="xygrid"
     id="grid4203"
     originx="-55.57"
     originy="-456.19001" /></sodipodi:namedview>
<style
   type="text/css"
   id="style3958">
	.st0{fill:#053E5B;}
	.st1{fill:#8C0404;}
	.st2{fill:#02374C;}
	.st3{fill:#EDAF03;}
</style>
<g
   id="g4194"
   transform="translate(-55.57,-402.13662)">
	<path
   class="st0"
   d="m 800.24,440.49 3.86,5.08 c 0.79,1.04 2.27,1.24 3.31,0.45 l 13.7,-10.43 -6.92,-9.09 -13.44,10.24 c -1.18,0.89 -1.4,2.57 -0.51,3.75"
   id="path3960"
   inkscape:connector-curvature="0"
   style="fill:#053e5b" />
	<path
   class="st0"
   d="m 806.47,527.91 3.86,-5.08 c 0.79,-1.04 2.27,-1.24 3.31,-0.45 l 13.7,10.43 -6.92,9.09 -13.44,-10.24 c -1.18,-0.89 -1.41,-2.57 -0.51,-3.75"
   id="path3962"
   inkscape:connector-curvature="0"
   style="fill:#053e5b" />
	<path
   class="st0"
   d="m 680.92,440.45 -3.86,5.08 c -0.79,1.04 -2.27,1.24 -3.31,0.45 l -13.7,-10.43 6.92,-9.09 13.44,10.24 c 1.18,0.9 1.41,2.58 0.51,3.75"
   id="path3964"
   inkscape:connector-curvature="0"
   style="fill:#053e5b" />
	<path
   class="st0"
   d="m 674.39,527.91 -3.86,-5.08 c -0.79,-1.04 -2.27,-1.24 -3.31,-0.45 l -13.7,10.43 6.92,9.09 13.44,-10.24 c 1.18,-0.89 1.41,-2.57 0.51,-3.75"
   id="path3966"
   inkscape:connector-curvature="0"
   style="fill:#053e5b" />
	<path
   class="st0"
   d="m 659.87,423.25 c -2.95,0 -5.34,2.39 -5.34,5.34 0,2.94 2.38,5.33 5.32,5.34 l 5.15,-6.76 c -0.63,-2.26 -2.68,-3.92 -5.13,-3.92"
   id="path3968"
   inkscape:connector-curvature="0"
   style="fill:#053e5b" />
	<path
   class="st0"
   d="m 671.13,413.93 c -3.26,5.65 -7.04,9.58 -8.43,8.78 -1.39,-0.8 0.12,-6.04 3.39,-11.69 3.26,-5.65 7.04,-9.58 8.43,-8.78 1.39,0.8 -0.12,6.04 -3.39,11.69"
   id="path3970"
   inkscape:connector-curvature="0"
   style="fill:#053e5b" />
	<path
   class="st0"
   d="m 652.13,445.21 c -3.66,5.4 -7.71,9.05 -9.04,8.15 -1.33,-0.9 0.56,-6.01 4.22,-11.42 3.66,-5.4 7.71,-9.05 9.04,-8.15 1.32,0.91 -0.56,6.02 -4.22,11.42"
   id="path3972"
   inkscape:connector-curvature="0"
   style="fill:#053e5b" />
	<path
   class="st0"
   d="m 648.5,538.48 c -0.76,2.85 0.94,5.78 3.79,6.54 2.85,0.76 5.76,-0.93 6.53,-3.77 l -5.21,-6.71 c -2.35,0.02 -4.48,1.57 -5.11,3.94"
   id="path3974"
   inkscape:connector-curvature="0"
   style="fill:#053e5b" />
	<path
   class="st0"
   d="m 642.38,525.2 c 4.63,4.61 7.45,9.26 6.32,10.4 -1.14,1.14 -5.81,-1.67 -10.43,-6.27 -4.62,-4.6 -7.45,-9.26 -6.32,-10.4 1.14,-1.14 5.81,1.67 10.43,6.27"
   id="path3976"
   inkscape:connector-curvature="0"
   style="fill:#053e5b" />
	<path
   class="st0"
   d="m 667.74,551.6 c 4.28,4.92 6.77,9.77 5.56,10.83 -1.21,1.06 -5.67,-2.08 -9.95,-7 -4.28,-4.92 -6.77,-9.77 -5.56,-10.83 1.21,-1.06 5.67,2.08 9.95,7"
   id="path3978"
   inkscape:connector-curvature="0"
   style="fill:#053e5b" />
	<path
   class="st0"
   d="m 827.16,545.12 c 2.95,-0.09 5.27,-2.55 5.18,-5.5 -0.09,-2.94 -2.54,-5.26 -5.48,-5.18 l -4.94,6.91 c 0.69,2.24 2.79,3.84 5.24,3.77"
   id="path3980"
   inkscape:connector-curvature="0"
   style="fill:#053e5b" />
	<path
   class="st0"
   d="m 816.18,554.77 c 3.09,-5.75 6.75,-9.79 8.17,-9.03 1.42,0.76 0.06,6.04 -3.04,11.79 -3.09,5.75 -6.75,9.79 -8.17,9.03 -1.41,-0.76 -0.05,-6.04 3.04,-11.79"
   id="path3982"
   inkscape:connector-curvature="0"
   style="fill:#053e5b" />
	<path
   class="st0"
   d="m 834.24,522.93 c 3.5,-5.51 7.43,-9.28 8.79,-8.42 1.36,0.86 -0.38,6.03 -3.87,11.54 -3.5,5.51 -7.43,9.28 -8.79,8.42 -1.36,-0.86 0.38,-6.03 3.87,-11.54"
   id="path3984"
   inkscape:connector-curvature="0"
   style="fill:#053e5b" />
	<path
   class="st0"
   d="m 825.96,430.11 c 0.82,-2.84 -0.82,-5.8 -3.65,-6.62 -2.83,-0.82 -5.78,0.81 -6.61,3.63 l 5.07,6.82 c 2.34,0.03 4.51,-1.47 5.19,-3.83"
   id="path3986"
   inkscape:connector-curvature="0"
   style="fill:#053e5b" />
	<path
   class="st0"
   d="m 831.79,443.52 c -4.53,-4.7 -7.25,-9.42 -6.1,-10.54 1.16,-1.12 5.77,1.79 10.29,6.5 4.52,4.7 7.25,9.42 6.09,10.54 -1.14,1.11 -5.75,-1.8 -10.28,-6.5"
   id="path3988"
   inkscape:connector-curvature="0"
   style="fill:#053e5b" />
	<path
   class="st0"
   d="m 807.01,416.58 c -4.18,-5.02 -6.56,-9.92 -5.32,-10.95 1.24,-1.03 5.63,2.2 9.8,7.22 4.18,5.02 6.56,9.92 5.32,10.94 -1.24,1.04 -5.63,-2.2 -9.8,-7.21"
   id="path3990"
   inkscape:connector-curvature="0"
   style="fill:#053e5b" />
	<path
   class="st1"
   d="m 56.94,506.39 c -0.23,0 -0.45,-0.06 -0.66,-0.17 -0.44,-0.24 -0.71,-0.69 -0.71,-1.19 v -29.41 c 0,-0.49 0.27,-0.95 0.71,-1.19 0.21,-0.11 0.43,-0.17 0.66,-0.17 0.25,0 0.51,0.07 0.73,0.21 l 23.39,14.7 c 0.4,0.25 0.64,0.68 0.64,1.15 0,0.47 -0.24,0.9 -0.64,1.15 l -23.39,14.71 c -0.22,0.14 -0.47,0.21 -0.73,0.21"
   id="path3992"
   inkscape:connector-curvature="0"
   style="fill:#8c0404" />
	<polyline
   class="st2"
   points="222.79,567.81 222.79,567.81 222.79,503.94 176.85,423.95 214.91,423.95 239.05,466.14    263.36,423.95 301.42,423.95 255.48,503.94 255.48,567.81 222.79,567.81  "
   id="polyline3994"
   style="fill:#02374c" />
	<path
   class="st2"
   d="m 369.45,412.74 h 55.05 c 42.54,0 77.52,34.62 76.69,77.15 -0.79,41.08 -34.38,74.18 -75.65,74.18 h -56.09 z m 40.17,112.1 h 16.3 c 16.63,0 31.52,-11.09 35.5,-27.23 5.76,-23.38 -12.21,-44.69 -34.98,-44.69 h -16.82 z"
   id="path3996"
   inkscape:connector-curvature="0"
   style="fill:#02374c" />
	<path
   class="st2"
   d="M 606.18,564.07 582.77,523.9 h -24.63 v 40.17 H 517.97 V 412.74 h 64.43 c 30.99,0 56.27,25.02 56.27,55.69 0,16.14 -7.14,30.67 -18.15,40.76 l 32.42,54.88 z m -48.04,-74.73 h 24.94 c 10.51,0 19.82,-7.36 21.66,-17.71 2.5,-14.11 -8.08,-26.2 -21.69,-26.2 h -24.91 z"
   id="path3998"
   inkscape:connector-curvature="0"
   style="fill:#02374c" />
	<path
   class="st2"
   d="m 739.83,412.22 c 41.82,0 75.77,34.15 75.77,75.97 0,41.82 -33.94,75.57 -75.77,75.57 -41.82,0 -75.57,-33.74 -75.57,-75.57 0,-41.82 33.74,-75.97 75.57,-75.97 m 0.04,29.6 c -26.11,0 -47.43,21.32 -47.43,47.7 0,26.11 21.32,47.7 47.43,47.7 26.38,0 47.7,-21.58 47.7,-47.7 0,-26.39 -21.32,-47.7 -47.7,-47.7"
   id="path4000"
   inkscape:connector-curvature="0"
   style="fill:#02374c" />
	<polygon
   class="st2"
   points="887.89,564.07 848.66,564.07 848.66,412.74 864.81,412.74 936.47,484.17 936.47,412.74 975.7,412.74 975.7,564.07 959.35,564.07 887.89,492.44 "
   id="polygon4002"
   style="fill:#02374c" />
	<polygon
   class="st2"
   points="1095.27,445.43 1041.09,445.43 1041.09,469.72 1088.73,469.72 1088.73,503.35 1041.09,503.35 1041.09,531.37 1095.27,531.37 1095.27,564.07 1000.92,564.07 1000.92,412.74 1095.27,412.74 "
   id="polygon4004"
   style="fill:#02374c" />
	<path
   class="st2"
   d="m 1179.85,458.51 c 0,-7.23 -7.02,-13.12 -14.5,-11.1 -3.95,1.07 -7.02,4.31 -7.97,8.29 -1.78,7.48 3.8,14.11 10.96,14.11 14.73,0 28.05,7.06 36.53,17.96 5.22,6.53 8.6,14.38 9.7,23.01 3.53,27.75 -18.36,52.72 -46.33,52.66 -25.78,-0.06 -46.51,-20.42 -46.51,-47.02 h 35.31 c 0,7.39 6.62,12.93 14.08,11.17 3.98,-0.94 7.23,-4 8.31,-7.95 2.04,-7.49 -3.85,-14.52 -11.1,-14.52 -29.98,0 -52.89,-27.72 -44.76,-59.2 4.08,-15.81 16.54,-28.3 32.37,-32.27 31.23,-7.85 59,15 59,44.85 h -35.09 z"
   id="path4006"
   inkscape:connector-curvature="0"
   style="fill:#02374c" />
	<path
   class="st2"
   d="m 158.41,485.91 c 5.85,-7.46 9.69,-16.95 9.69,-27.24 0,-24.21 -20.58,-45 -44.79,-45 h -66.8 v 55.86 c 0.61,0 1.21,0.17 1.74,0.5 l 27.89,17.64 c 0.45,0.29 0.86,0.65 1.11,1.12 0.9,1.65 0.32,3.52 -1.08,4.4 l -27.92,17.66 c -0.53,0.34 -1.13,0.5 -1.74,0.5 V 565 h 74.66 c 24.01,0 44.39,-20.38 44.39,-44.39 0,-13.72 -6.86,-26.43 -17.15,-34.7 M 95.75,446.37 h 18.68 c 7.37,0 13.68,6.03 13.51,13.4 -0.17,7.09 -5.94,12.75 -13.07,12.75 H 95.75 Z m 26.15,85.94 H 95.75 v -26.16 h 26.56 c 6.84,0 13.08,5.83 13.08,13.08 0,7.24 -5.83,13.08 -13.08,13.08"
   id="path4008"
   inkscape:connector-curvature="0"
   style="fill:#02374c" />
	<g
   id="g4192">
		
		
		
		
		
		
		
		
		
		
		
		
		
		
		
		
		
		
		
		
		
		
		
		
		
		
		
		
		
		
		
		
		
		
		
		
		
		
		
		
		
		
		
		
		
		
		
		
		
		
		
		
		
		
		
		
		
		
		
		
		
		
		
		
		
		
		
		
		
		
		
		
		
		
		
		
		
		
		
		
		
		
		
		
		
		
		
		
		
		
		
	</g>
</g>
</svg>