<?xml version="1.0" encoding="utf-8"?>
<!-- Generator: Adobe Illustrator 23.0.0, SVG Export Plug-In . SVG Version: 6.00 Build 0)  -->
<svg version="1.1" id="Camada_1" xmlns="http://www.w3.org/2000/svg" xmlns:xlink="http://www.w3.org/1999/xlink" x="0px" y="0px"
	 viewBox="0 0 1280 1024" style="enable-background:new 0 0 1280 1024;" xml:space="preserve">
<style type="text/css">
	.st0{fill:#053E5B;}
	.st1{fill:#8C0404;}
	.st2{fill:#02374C;}
	.st3{fill:#EDAF03;}
</style>
<g>
	<path class="st0" d="M800.24,440.49l3.86,5.08c0.79,1.04,2.27,1.24,3.31,0.45l13.7-10.43l-6.92-9.09l-13.44,10.24
		C799.57,437.63,799.35,439.31,800.24,440.49"/>
	<path class="st0" d="M806.47,527.91l3.86-5.08c0.79-1.04,2.27-1.24,3.31-0.45l13.7,10.43l-6.92,9.09l-13.44-10.24
		C805.8,530.77,805.57,529.09,806.47,527.91"/>
	<path class="st0" d="M680.92,440.45l-3.86,5.08c-0.79,1.04-2.27,1.24-3.31,0.45l-13.7-10.43l6.92-9.09l13.44,10.24
		C681.59,437.6,681.82,439.28,680.92,440.45"/>
	<path class="st0" d="M674.39,527.91l-3.86-5.08c-0.79-1.04-2.27-1.24-3.31-0.45l-13.7,10.43l6.92,9.09l13.44-10.24
		C675.06,530.77,675.29,529.09,674.39,527.91"/>
	<path class="st0" d="M659.87,423.25c-2.95,0-5.34,2.39-5.34,5.34c0,2.94,2.38,5.33,5.32,5.34l5.15-6.76
		C664.37,424.91,662.32,423.25,659.87,423.25"/>
	<path class="st0" d="M671.13,413.93c-3.26,5.65-7.04,9.58-8.43,8.78c-1.39-0.8,0.12-6.04,3.39-11.69c3.26-5.65,7.04-9.58,8.43-8.78
		C675.91,403.04,674.4,408.28,671.13,413.93"/>
	<path class="st0" d="M652.13,445.21c-3.66,5.4-7.71,9.05-9.04,8.15c-1.33-0.9,0.56-6.01,4.22-11.42c3.66-5.4,7.71-9.05,9.04-8.15
		C657.67,434.7,655.79,439.81,652.13,445.21"/>
	<path class="st0" d="M648.5,538.48c-0.76,2.85,0.94,5.78,3.79,6.54c2.85,0.76,5.76-0.93,6.53-3.77l-5.21-6.71
		C651.26,534.56,649.13,536.11,648.5,538.48"/>
	<path class="st0" d="M642.38,525.2c4.63,4.61,7.45,9.26,6.32,10.4c-1.14,1.14-5.81-1.67-10.43-6.27c-4.62-4.6-7.45-9.26-6.32-10.4
		C633.09,517.79,637.76,520.6,642.38,525.2"/>
	<path class="st0" d="M667.74,551.6c4.28,4.92,6.77,9.77,5.56,10.83c-1.21,1.06-5.67-2.08-9.95-7c-4.28-4.92-6.77-9.77-5.56-10.83
		C659,543.54,663.46,546.68,667.74,551.6"/>
	<path class="st0" d="M827.16,545.12c2.95-0.09,5.27-2.55,5.18-5.5c-0.09-2.94-2.54-5.26-5.48-5.18l-4.94,6.91
		C822.61,543.59,824.71,545.19,827.16,545.12"/>
	<path class="st0" d="M816.18,554.77c3.09-5.75,6.75-9.79,8.17-9.03c1.42,0.76,0.06,6.04-3.04,11.79c-3.09,5.75-6.75,9.79-8.17,9.03
		C811.73,565.8,813.09,560.52,816.18,554.77"/>
	<path class="st0" d="M834.24,522.93c3.5-5.51,7.43-9.28,8.79-8.42c1.36,0.86-0.38,6.03-3.87,11.54c-3.5,5.51-7.43,9.28-8.79,8.42
		C829.01,533.61,830.75,528.44,834.24,522.93"/>
	<path class="st0" d="M825.96,430.11c0.82-2.84-0.82-5.8-3.65-6.62c-2.83-0.82-5.78,0.81-6.61,3.63l5.07,6.82
		C823.11,433.97,825.28,432.47,825.96,430.11"/>
	<path class="st0" d="M831.79,443.52c-4.53-4.7-7.25-9.42-6.1-10.54c1.16-1.12,5.77,1.79,10.29,6.5c4.52,4.7,7.25,9.42,6.09,10.54
		C840.93,451.13,836.32,448.22,831.79,443.52"/>
	<path class="st0" d="M807.01,416.58c-4.18-5.02-6.56-9.92-5.32-10.95c1.24-1.03,5.63,2.2,9.8,7.22c4.18,5.02,6.56,9.92,5.32,10.94
		C815.57,424.83,811.18,421.59,807.01,416.58"/>
	<path class="st1" d="M56.94,506.39c-0.23,0-0.45-0.06-0.66-0.17c-0.44-0.24-0.71-0.69-0.71-1.19v-29.41c0-0.49,0.27-0.95,0.71-1.19
		c0.21-0.11,0.43-0.17,0.66-0.17c0.25,0,0.51,0.07,0.73,0.21l23.39,14.7c0.4,0.25,0.64,0.68,0.64,1.15c0,0.47-0.24,0.9-0.64,1.15
		l-23.39,14.71C57.45,506.32,57.2,506.39,56.94,506.39"/>
	<polyline class="st2" points="222.79,567.81 222.79,567.81 222.79,503.94 176.85,423.95 214.91,423.95 239.05,466.14 
		263.36,423.95 301.42,423.95 255.48,503.94 255.48,567.81 222.79,567.81 	"/>
	<path class="st2" d="M369.45,412.74h55.05c42.54,0,77.52,34.62,76.69,77.15c-0.79,41.08-34.38,74.18-75.65,74.18h-56.09V412.74z
		 M409.62,524.84h16.3c16.63,0,31.52-11.09,35.5-27.23c5.76-23.38-12.21-44.69-34.98-44.69h-16.82V524.84z"/>
	<path class="st2" d="M606.18,564.07l-23.41-40.17h-24.63v40.17h-40.17V412.74h64.43c30.99,0,56.27,25.02,56.27,55.69
		c0,16.14-7.14,30.67-18.15,40.76l32.42,54.88H606.18z M558.14,489.34h24.94c10.51,0,19.82-7.36,21.66-17.71
		c2.5-14.11-8.08-26.2-21.69-26.2h-24.91V489.34z"/>
	<path class="st2" d="M739.83,412.22c41.82,0,75.77,34.15,75.77,75.97c0,41.82-33.94,75.57-75.77,75.57
		c-41.82,0-75.57-33.74-75.57-75.57C664.26,446.37,698,412.22,739.83,412.22 M739.87,441.82c-26.11,0-47.43,21.32-47.43,47.7
		c0,26.11,21.32,47.7,47.43,47.7c26.38,0,47.7-21.58,47.7-47.7C787.57,463.13,766.25,441.82,739.87,441.82"/>
	<polygon class="st2" points="959.35,564.07 887.89,492.44 887.89,564.07 848.66,564.07 848.66,412.74 864.81,412.74 936.47,484.17 
		936.47,412.74 975.7,412.74 975.7,564.07 	"/>
	<polygon class="st2" points="1000.92,412.74 1095.27,412.74 1095.27,445.43 1041.09,445.43 1041.09,469.72 1088.73,469.72 
		1088.73,503.35 1041.09,503.35 1041.09,531.37 1095.27,531.37 1095.27,564.07 1000.92,564.07 	"/>
	<path class="st2" d="M1179.85,458.51c0-7.23-7.02-13.12-14.5-11.1c-3.95,1.07-7.02,4.31-7.97,8.29
		c-1.78,7.48,3.8,14.11,10.96,14.11c14.73,0,28.05,7.06,36.53,17.96c5.22,6.53,8.6,14.38,9.7,23.01
		c3.53,27.75-18.36,52.72-46.33,52.66c-25.78-0.06-46.51-20.42-46.51-47.02h35.31c0,7.39,6.62,12.93,14.08,11.17
		c3.98-0.94,7.23-4,8.31-7.95c2.04-7.49-3.85-14.52-11.1-14.52c-29.98,0-52.89-27.72-44.76-59.2c4.08-15.81,16.54-28.3,32.37-32.27
		c31.23-7.85,59,15,59,44.85H1179.85z"/>
	<path class="st2" d="M158.41,485.91c5.85-7.46,9.69-16.95,9.69-27.24c0-24.21-20.58-45-44.79-45H56.51v55.86
		c0.61,0,1.21,0.17,1.74,0.5l27.89,17.64c0.45,0.29,0.86,0.65,1.11,1.12c0.9,1.65,0.32,3.52-1.08,4.4l-27.92,17.66
		c-0.53,0.34-1.13,0.5-1.74,0.5V565h74.66c24.01,0,44.39-20.38,44.39-44.39C175.56,506.89,168.7,494.18,158.41,485.91 M95.75,446.37
		h18.68c7.37,0,13.68,6.03,13.51,13.4c-0.17,7.09-5.94,12.75-13.07,12.75H95.75V446.37z M121.9,532.31H95.75v-26.16h26.56
		c6.84,0,13.08,5.83,13.08,13.08c0,7.24-5.83,13.08-13.08,13.08"/>
	<g>
		<path d="M436.53,596.34c0.14-1.7,0.6-3.22,1.38-4.56c0.78-1.34,1.75-2.48,2.92-3.42c1.17-0.94,2.47-1.67,3.9-2.2
			c1.43-0.53,2.85-0.82,4.27-0.88c1.41-0.05,2.75,0.14,4,0.58c1.25,0.44,2.31,1.16,3.16,2.15c0.85,0.99,1.41,2.27,1.7,3.85
			c0.28,1.57,0.16,3.46-0.37,5.65c-0.11,0.39-0.34,0.63-0.72,0.72c-0.37,0.09-0.78,0.09-1.22,0c-0.44-0.09-0.88-0.22-1.3-0.4
			c-0.42-0.18-0.74-0.35-0.95-0.53c0.6-2.19,0.72-3.97,0.34-5.33c-0.37-1.36-1.01-2.36-1.91-3c-0.9-0.64-1.97-0.93-3.21-0.88
			c-1.24,0.05-2.43,0.42-3.58,1.09c-1.15,0.67-2.14,1.64-2.97,2.89c-0.83,1.26-1.3,2.75-1.41,4.48c-0.11,0.96,0.29,1.71,1.19,2.25
			c0.9,0.55,2.02,1.03,3.34,1.46c1.33,0.42,2.76,0.85,4.3,1.27c1.54,0.42,2.92,0.98,4.14,1.67c1.22,0.69,2.14,1.57,2.76,2.65
			c0.62,1.08,0.7,2.48,0.24,4.22c-0.42,1.63-1.07,3.22-1.94,4.77c-0.87,1.56-1.89,2.94-3.08,4.14c-1.18,1.2-2.52,2.13-4,2.78
			c-1.49,0.65-3.06,0.89-4.72,0.72c-1.73-0.18-3.17-0.75-4.32-1.72c-1.15-0.97-2.04-2.17-2.68-3.61c-0.64-1.43-1.03-3.01-1.19-4.75
			c-0.16-1.73-0.1-3.43,0.19-5.09c0.25-0.28,0.57-0.53,0.95-0.74c0.39-0.21,0.76-0.34,1.11-0.4c0.35-0.05,0.65,0.01,0.9,0.19
			c0.25,0.18,0.34,0.5,0.27,0.95c-0.35,1.45-0.55,2.94-0.58,4.48c-0.04,1.54,0.14,2.94,0.53,4.22c0.39,1.27,1,2.34,1.83,3.21
			c0.83,0.87,1.92,1.37,3.26,1.51c2.3,0.25,4.29-0.57,5.97-2.44c1.68-1.87,3.03-4.58,4.06-8.12c0.39-1.2,0.43-2.2,0.13-3
			c-0.3-0.8-0.81-1.45-1.54-1.96c-0.73-0.51-1.62-0.92-2.68-1.22c-1.06-0.3-2.17-0.58-3.32-0.85c-1.15-0.27-2.28-0.55-3.39-0.85
			c-1.11-0.3-2.11-0.7-3-1.19c-0.88-0.49-1.58-1.12-2.1-1.88C436.68,598.47,436.46,597.51,436.53,596.34z"/>
		<path d="M473.82,607.48c0.14-0.21,0.3-0.39,0.48-0.53c0.18-0.14,0.34-0.2,0.48-0.19c0.14,0.02,0.21,0.12,0.21,0.29
			c0,0.18-0.11,0.48-0.32,0.9c-0.21,0.42-0.59,1.16-1.14,2.2c-0.55,1.04-1.13,2.15-1.75,3.32c-0.62,1.17-1.21,2.27-1.78,3.32
			c-0.57,1.04-0.95,1.76-1.17,2.15c-0.81,1.52-1.58,2.19-2.31,2.02c-0.73-0.18-1.09-1.22-1.09-3.13c-0.39,0.99-0.94,1.78-1.64,2.36
			c-0.71,0.58-1.38,0.86-2.02,0.82c-1.06-0.04-1.84-0.52-2.33-1.46c-0.5-0.94-0.75-2.19-0.77-3.77c-0.02-1.57,0.19-3.39,0.61-5.44
			c0.42-2.05,1.03-4.19,1.8-6.42c0.18-0.49,0.43-0.78,0.77-0.85c0.34-0.07,0.68-0.03,1.03,0.13c0.35,0.16,0.68,0.38,0.98,0.66
			c0.3,0.28,0.5,0.53,0.61,0.74c-0.74,1.52-1.41,3.15-2.02,4.88c-0.6,1.73-1.03,3.33-1.3,4.8c-0.27,1.47-0.31,2.69-0.13,3.66
			c0.18,0.97,0.69,1.46,1.54,1.46c0.46-0.03,0.98-0.46,1.56-1.27c0.58-0.81,1.1-2.02,1.56-3.61c0.21-1.34,0.57-2.91,1.06-4.69
			c0.49-1.79,1.15-3.79,1.96-6.02c0.14-0.39,0.35-0.6,0.64-0.64c0.28-0.03,0.58,0.04,0.9,0.21c0.32,0.18,0.61,0.42,0.88,0.74
			c0.27,0.32,0.43,0.6,0.5,0.85c-0.85,1.63-1.55,3.29-2.1,4.99c-0.55,1.7-0.97,3.21-1.27,4.53c-0.3,1.33-0.48,2.34-0.53,3.05
			c-0.05,0.71,0.03,0.9,0.24,0.58c0.21-0.32,0.57-0.95,1.06-1.88c0.49-0.94,1.04-1.96,1.64-3.08c0.6-1.11,1.18-2.19,1.75-3.24
			C473.01,608.91,473.47,608.08,473.82,607.48z"/>
		<path d="M486.55,607.59c0.14-0.21,0.3-0.39,0.48-0.53c0.18-0.14,0.34-0.2,0.48-0.19c0.14,0.02,0.22,0.12,0.24,0.29
			c0.02,0.18-0.08,0.48-0.29,0.9c-0.21,0.42-0.6,1.16-1.17,2.2c-0.57,1.04-1.16,2.15-1.78,3.32c-0.62,1.17-1.2,2.27-1.75,3.32
			c-0.55,1.04-0.93,1.76-1.14,2.15c-0.85,1.52-1.64,2.18-2.36,1.99c-0.73-0.19-1.07-1.3-1.03-3.31c-0.35,0.95-0.81,1.72-1.38,2.28
			c-0.57,0.57-1.15,0.9-1.75,1.01c-0.6,0.11-1.19-0.02-1.78-0.37c-0.58-0.35-1.05-0.95-1.41-1.8c-0.35-0.85-0.57-1.96-0.64-3.34
			c-0.07-1.38,0.09-3.02,0.48-4.93c0.5-2.4,1.26-4.19,2.28-5.36c1.03-1.17,2.05-1.85,3.08-2.04c1.03-0.19,1.89,0.04,2.6,0.69
			c0.71,0.65,0.99,1.58,0.85,2.78c0.14-0.42,0.28-0.86,0.42-1.3c0.14-0.44,0.3-0.91,0.48-1.41c0.14-0.39,0.36-0.6,0.66-0.64
			c0.3-0.04,0.61,0.04,0.93,0.21c0.32,0.18,0.6,0.42,0.85,0.74c0.25,0.32,0.41,0.6,0.48,0.85c-0.81,1.63-1.5,3.29-2.07,4.99
			c-0.57,1.7-0.99,3.21-1.27,4.53c-0.28,1.33-0.45,2.34-0.5,3.05c-0.05,0.71,0.03,0.9,0.24,0.58c0.18-0.32,0.52-0.95,1.03-1.88
			c0.51-0.94,1.06-1.96,1.64-3.08s1.17-2.19,1.75-3.24C485.78,609.01,486.23,608.19,486.55,607.59z M478.49,614.64
			c0.21-1.41,0.58-3.06,1.11-4.93c0.14-1.2,0.04-2.1-0.29-2.71c-0.34-0.6-0.77-0.86-1.3-0.77c-0.53,0.09-1.1,0.53-1.7,1.33
			c-0.6,0.8-1.08,1.99-1.43,3.58c-0.57,2.58-0.8,4.55-0.69,5.91c0.11,1.36,0.39,2.17,0.85,2.41c0.46,0.25,1.02-0.04,1.67-0.87
			C477.36,617.76,477.96,616.45,478.49,614.64z"/>
		<path d="M510.47,607.48c0.14-0.21,0.3-0.39,0.48-0.53c0.18-0.14,0.34-0.2,0.48-0.19c0.14,0.02,0.21,0.12,0.21,0.29
			c0,0.18-0.11,0.48-0.32,0.9c-0.21,0.42-0.59,1.16-1.14,2.2c-0.55,1.04-1.14,2.15-1.78,3.32s-1.23,2.27-1.78,3.32
			c-0.55,1.04-0.93,1.76-1.14,2.15c-0.64,1.17-1.25,1.85-1.83,2.04c-0.58,0.19-0.97-0.18-1.17-1.11c-0.19-0.94-0.13-2.48,0.19-4.64
			c0.32-2.16,1.04-4.99,2.17-8.49c-0.46,0.21-1.01,0.65-1.64,1.33c-0.64,0.67-1.29,1.51-1.96,2.52c-0.67,1.01-1.33,2.11-1.96,3.32
			c-0.64,1.2-1.17,2.44-1.59,3.71c-0.39,1.8-0.67,3.56-0.85,5.28c-0.18,1.72-0.23,3.33-0.16,4.85c-0.64-0.14-1.11-0.9-1.43-2.28
			c-0.32-1.38-0.4-3.16-0.24-5.36c0.16-2.19,0.58-4.69,1.25-7.48c0.67-2.79,1.7-5.71,3.08-8.75c0.14-0.42,0.35-0.65,0.64-0.69
			c0.28-0.03,0.58,0.04,0.9,0.24c0.32,0.19,0.61,0.44,0.88,0.74c0.27,0.3,0.43,0.59,0.5,0.88c-1.1,1.84-2.07,4.05-2.92,6.63
			c0.6-1.31,1.21-2.49,1.83-3.55c0.62-1.06,1.24-1.97,1.86-2.73c0.62-0.76,1.21-1.34,1.78-1.75c0.57-0.41,1.08-0.61,1.54-0.61
			c0.64,0.32,1.07,0.77,1.3,1.35c0.23,0.58,0.38,1.07,0.45,1.46c-0.88,2.02-1.59,3.84-2.12,5.46c-0.53,1.63-0.92,3-1.17,4.11
			c-0.25,1.11-0.38,1.92-0.4,2.41c-0.02,0.5,0.06,0.6,0.24,0.32c0.21-0.32,0.57-0.95,1.06-1.88c0.49-0.94,1.04-1.96,1.64-3.08
			c0.6-1.11,1.18-2.19,1.75-3.24C509.66,608.91,510.12,608.08,510.47,607.48z"/>
		<path d="M523.31,607.48c0.14-0.21,0.3-0.39,0.48-0.53c0.18-0.14,0.34-0.2,0.48-0.19c0.14,0.02,0.21,0.12,0.21,0.29
			c0,0.18-0.11,0.48-0.32,0.9c-0.21,0.42-0.59,1.16-1.14,2.2c-0.55,1.04-1.13,2.15-1.75,3.32c-0.62,1.17-1.21,2.27-1.78,3.32
			c-0.57,1.04-0.95,1.76-1.17,2.15c-0.81,1.52-1.58,2.19-2.31,2.02c-0.73-0.18-1.09-1.22-1.09-3.13c-0.39,0.99-0.94,1.78-1.64,2.36
			c-0.71,0.58-1.38,0.86-2.02,0.82c-1.06-0.04-1.84-0.52-2.33-1.46c-0.49-0.94-0.75-2.19-0.77-3.77c-0.02-1.57,0.19-3.39,0.61-5.44
			c0.42-2.05,1.03-4.19,1.8-6.42c0.18-0.49,0.43-0.78,0.77-0.85c0.34-0.07,0.68-0.03,1.03,0.13c0.35,0.16,0.68,0.38,0.98,0.66
			c0.3,0.28,0.5,0.53,0.61,0.74c-0.74,1.52-1.41,3.15-2.02,4.88c-0.6,1.73-1.03,3.33-1.3,4.8c-0.27,1.47-0.31,2.69-0.13,3.66
			c0.18,0.97,0.69,1.46,1.54,1.46c0.46-0.03,0.98-0.46,1.56-1.27c0.58-0.81,1.1-2.02,1.56-3.61c0.21-1.34,0.57-2.91,1.06-4.69
			c0.49-1.79,1.15-3.79,1.96-6.02c0.14-0.39,0.35-0.6,0.64-0.64c0.28-0.03,0.58,0.04,0.9,0.21c0.32,0.18,0.61,0.42,0.88,0.74
			c0.27,0.32,0.43,0.6,0.5,0.85c-0.85,1.63-1.55,3.29-2.1,4.99c-0.55,1.7-0.97,3.21-1.27,4.53c-0.3,1.33-0.48,2.34-0.53,3.05
			c-0.05,0.71,0.03,0.9,0.24,0.58c0.21-0.32,0.57-0.95,1.06-1.88c0.49-0.94,1.04-1.96,1.64-3.08c0.6-1.11,1.18-2.19,1.75-3.24
			C522.49,608.91,522.95,608.08,523.31,607.48z"/>
		<path d="M529.19,607.54c0.14-0.21,0.3-0.39,0.48-0.53c0.18-0.14,0.34-0.2,0.48-0.19c0.14,0.02,0.21,0.12,0.21,0.29
			c0,0.18-0.11,0.48-0.32,0.9c-0.21,0.42-0.58,1.16-1.11,2.2c-0.53,1.04-1.09,2.15-1.67,3.32s-1.13,2.27-1.64,3.32
			c-0.51,1.04-0.87,1.76-1.09,2.15c-0.46,0.85-0.96,1.42-1.51,1.72c-0.55,0.3-1.01,0.23-1.38-0.21c-0.37-0.44-0.61-1.31-0.72-2.6
			c-0.11-1.29,0.04-3.08,0.42-5.38c0.39-2.3,1.07-5.15,2.04-8.54s2.34-7.43,4.11-12.09c0.14-0.39,0.39-0.57,0.74-0.53
			c0.35,0.04,0.73,0.18,1.14,0.42c0.41,0.25,0.77,0.56,1.09,0.93c0.32,0.37,0.51,0.68,0.58,0.93c-2.16,4.46-3.79,8.31-4.91,11.56
			c-1.11,3.25-1.88,5.9-2.31,7.93c-0.42,2.03-0.61,3.47-0.56,4.3c0.05,0.83,0.17,1.09,0.34,0.77c0.21-0.32,0.56-0.95,1.03-1.88
			c0.48-0.94,0.99-1.96,1.54-3.08c0.55-1.11,1.1-2.19,1.64-3.24C528.39,608.96,528.84,608.14,529.19,607.54z"/>
		<path d="M542.24,607.54c0.07-0.25,0.19-0.44,0.34-0.58c0.16-0.14,0.31-0.21,0.45-0.21c0.14,0,0.23,0.11,0.27,0.32
			c0.03,0.21-0.04,0.53-0.21,0.95c-0.53,1.38-1.28,2.34-2.25,2.89c-0.97,0.55-1.87,0.63-2.68,0.24c-0.35,1.06-0.78,2.18-1.27,3.37
			c-0.5,1.19-1.09,2.27-1.78,3.26c-0.69,0.99-1.48,1.8-2.36,2.44c-0.88,0.64-1.86,0.9-2.92,0.8c-1.03-0.11-1.76-0.64-2.2-1.59
			c-0.44-0.95-0.66-2.21-0.66-3.77c0-1.56,0.21-3.34,0.64-5.36c0.42-2.02,1.01-4.14,1.75-6.36c0.18-0.49,0.43-0.78,0.77-0.85
			c0.34-0.07,0.68-0.03,1.03,0.13c0.35,0.16,0.68,0.38,0.98,0.66c0.3,0.28,0.5,0.53,0.61,0.74c-0.71,1.41-1.36,2.94-1.96,4.59
			c-0.6,1.64-1.06,3.19-1.38,4.64c-0.32,1.45-0.43,2.69-0.34,3.71c0.09,1.03,0.49,1.63,1.19,1.8c0.74,0.18,1.44-0.19,2.1-1.09
			c0.65-0.9,1.25-2.02,1.8-3.34c0.55-1.33,1.03-2.72,1.43-4.19c0.41-1.47,0.72-2.7,0.93-3.69c0.07-1.03,0.3-2.17,0.69-3.45
			c0.14-0.39,0.36-0.6,0.66-0.64c0.3-0.03,0.61,0.04,0.93,0.21c0.32,0.18,0.6,0.42,0.85,0.74c0.25,0.32,0.41,0.6,0.48,0.85
			c-0.64,1.59-0.94,2.78-0.9,3.55c0.03,0.78,0.23,1.24,0.58,1.38c0.35,0.14,0.78,0.01,1.27-0.4
			C541.57,608.91,541.96,608.31,542.24,607.54z"/>
		<path d="M553.86,607.59c0.11-0.25,0.23-0.44,0.37-0.58c0.14-0.14,0.27-0.2,0.4-0.19c0.12,0.02,0.2,0.12,0.24,0.32
			c0.04,0.19-0.02,0.5-0.16,0.93c-0.6,1.63-1.26,3.23-1.99,4.8c-0.72,1.57-1.53,2.98-2.41,4.22c-0.88,1.24-1.85,2.23-2.89,2.97
			c-1.04,0.74-2.18,1.08-3.42,1.01c-1.06-0.04-1.93-0.52-2.6-1.46c-0.67-0.94-1.13-2.09-1.38-3.45c-0.25-1.36-0.28-2.83-0.11-4.4
			c0.18-1.57,0.58-3.01,1.22-4.32c0.64-1.31,1.5-2.39,2.6-3.24c1.1-0.85,2.44-1.22,4.03-1.11c1.1,0.07,1.9,0.43,2.41,1.09
			c0.51,0.65,0.79,1.46,0.82,2.41c0.04,0.96-0.14,2.01-0.53,3.16c-0.39,1.15-0.95,2.25-1.7,3.31c-0.74,1.06-1.63,2.01-2.65,2.84
			c-1.03,0.83-2.16,1.41-3.39,1.72c0.35,1.13,0.97,1.77,1.86,1.91c1.45,0.14,2.92-0.74,4.4-2.65
			C550.46,614.96,552.09,611.87,553.86,607.59z M547.54,606c-0.67-0.14-1.32,0.09-1.94,0.69c-0.62,0.6-1.17,1.4-1.64,2.39
			c-0.48,0.99-0.86,2.09-1.14,3.29c-0.28,1.2-0.41,2.33-0.37,3.39c1.31-0.42,2.41-1.14,3.31-2.15c0.9-1.01,1.58-2.06,2.04-3.16
			c0.46-1.1,0.67-2.08,0.64-2.94C548.41,606.64,548.11,606.14,547.54,606z"/>
		<path d="M565.58,607.48c0.14-0.21,0.3-0.39,0.48-0.53c0.18-0.14,0.34-0.2,0.48-0.19c0.14,0.02,0.21,0.12,0.21,0.29
			c0,0.18-0.11,0.48-0.32,0.9c-0.21,0.42-0.62,1.17-1.22,2.23c-0.6,1.06-1.25,2.19-1.94,3.39c-0.69,1.2-1.35,2.33-1.99,3.37
			c-0.64,1.04-1.08,1.76-1.33,2.15c-0.71,1.1-1.32,1.73-1.83,1.91c-0.51,0.18-0.87-0.12-1.06-0.9c-0.19-0.78-0.19-2.03,0.03-3.77
			c0.21-1.73,0.71-3.98,1.49-6.74c-0.81,0.18-1.64,0.25-2.49,0.21c-0.85-0.03-1.64-0.19-2.39-0.48c-0.74-0.28-1.24-0.81-1.49-1.59
			c-0.25-0.78-0.3-1.55-0.16-2.31c0.14-0.76,0.47-1.41,0.98-1.94c0.51-0.53,1.18-0.71,1.99-0.53c1.17,0.32,1.13,1.7-0.11,4.14
			c0.53,0.11,1.14,0.1,1.83-0.03c0.69-0.12,1.38-0.35,2.07-0.69c0.69-0.34,1.33-0.79,1.91-1.35c0.58-0.57,1.02-1.26,1.3-2.07
			c0.25,0.07,0.44,0.26,0.58,0.56c0.14,0.3,0.22,0.66,0.24,1.09c0.02,0.42-0.02,0.88-0.11,1.38c-0.09,0.5-0.22,0.96-0.4,1.38
			c-0.11,0.18-0.21,0.32-0.32,0.42c-0.11,0.11-0.23,0.23-0.37,0.37c-0.5,1.34-0.94,2.67-1.33,3.98c-0.39,1.31-0.71,2.47-0.96,3.47
			c-0.25,1.01-0.4,1.77-0.45,2.28c-0.05,0.51,0.01,0.65,0.19,0.4c0.25-0.35,0.66-1.01,1.25-1.96c0.58-0.95,1.2-1.99,1.86-3.1
			c0.65-1.11,1.29-2.2,1.91-3.26C564.74,608.91,565.22,608.08,565.58,607.48z M554.49,604.46c-0.28-0.11-0.52-0.08-0.72,0.08
			c-0.19,0.16-0.33,0.37-0.4,0.64c-0.07,0.27-0.06,0.55,0.03,0.85c0.09,0.3,0.27,0.52,0.56,0.66c0.32-0.6,0.54-1.1,0.66-1.51
			C554.75,604.77,554.7,604.53,554.49,604.46z"/>
		<path d="M565.52,603.88c0.14-0.39,0.35-0.6,0.64-0.64c0.28-0.04,0.58,0.04,0.9,0.21c0.32,0.18,0.6,0.42,0.85,0.74
			c0.25,0.32,0.41,0.6,0.48,0.85c-0.81,1.63-1.5,3.29-2.07,4.99c-0.57,1.7-0.99,3.21-1.27,4.53c-0.28,1.33-0.45,2.34-0.5,3.05
			c-0.05,0.71,0.03,0.9,0.24,0.58c0.18-0.32,0.52-0.95,1.03-1.88c0.51-0.94,1.06-1.96,1.64-3.08c0.58-1.11,1.17-2.19,1.75-3.24
			c0.58-1.04,1.05-1.86,1.41-2.47c0.14-0.21,0.3-0.39,0.48-0.53c0.18-0.14,0.34-0.2,0.48-0.19c0.14,0.02,0.21,0.12,0.21,0.29
			c0,0.18-0.11,0.48-0.32,0.9c-0.21,0.42-0.59,1.16-1.14,2.2c-0.55,1.04-1.14,2.15-1.78,3.32c-0.64,1.17-1.23,2.27-1.78,3.32
			c-0.55,1.04-0.93,1.76-1.14,2.15c-0.71,1.31-1.39,1.99-2.04,2.04c-0.65,0.05-1.08-0.54-1.27-1.78c-0.19-1.24-0.07-3.13,0.37-5.68
			C563.13,611.04,564.07,607.8,565.52,603.88z M568.65,604.25c0-0.14-0.11-0.32-0.32-0.53c-0.21-0.21-0.44-0.42-0.69-0.61
			c-0.25-0.19-0.5-0.34-0.77-0.45c-0.27-0.11-0.45-0.14-0.56-0.11c0.11-0.35,0.2-0.64,0.29-0.88c0.09-0.23,0.2-0.52,0.34-0.88
			c0.14-0.39,0.36-0.61,0.66-0.66c0.3-0.05,0.6,0.01,0.9,0.19c0.3,0.18,0.57,0.43,0.82,0.77c0.25,0.34,0.39,0.66,0.42,0.98
			c-0.18,0.39-0.36,0.75-0.56,1.09C569.02,603.5,568.83,603.86,568.65,604.25z"/>
		<path d="M582.71,607.54c0.28-0.6,0.58-0.87,0.9-0.8c0.32,0.07,0.37,0.37,0.16,0.9c-1.06,2.48-2.14,4.53-3.24,6.18
			c-1.1,1.64-2.25,3.09-3.45,4.32c-0.11,0.11-0.25,0.24-0.42,0.4c-0.18,0.16-0.35,0.33-0.53,0.5c-0.53,1.49-1.11,2.89-1.75,4.22
			c-0.64,1.33-1.31,2.45-2.02,3.37c-0.71,0.92-1.47,1.44-2.28,1.56c-0.81,0.12-1.48,0-1.99-0.37c-0.51-0.37-0.79-0.93-0.82-1.67
			c-0.04-0.74,0.39-1.52,1.27-2.33c0.14-0.11,0.38-0.3,0.72-0.58c0.34-0.28,0.73-0.62,1.19-1.01c0.46-0.39,0.95-0.8,1.49-1.25
			c0.53-0.44,1.06-0.88,1.59-1.3c0.21-0.71,0.43-1.46,0.66-2.25c0.23-0.8,0.49-1.69,0.77-2.68c-0.32,0.28-0.68,0.56-1.09,0.82
			c-0.41,0.27-0.79,0.5-1.14,0.72c-0.14-0.03-0.3-0.16-0.48-0.37c-0.18-0.21-0.32-0.45-0.42-0.72c-0.11-0.27-0.13-0.54-0.08-0.82
			c0.05-0.28,0.22-0.53,0.5-0.74c0.6-0.42,1.25-1.02,1.96-1.78c0.71-0.76,1.31-1.55,1.8-2.36c-0.85,0.25-1.72,0.36-2.63,0.34
			c-0.9-0.02-1.74-0.19-2.52-0.5c-0.74-0.28-1.25-0.81-1.51-1.59c-0.27-0.78-0.33-1.55-0.19-2.31c0.14-0.76,0.47-1.41,0.98-1.94
			c0.51-0.53,1.18-0.71,1.99-0.53c1.17,0.25,1.15,1.63-0.05,4.14c0.53,0.11,1.14,0.1,1.83-0.03c0.69-0.12,1.37-0.36,2.04-0.72
			c0.67-0.35,1.3-0.81,1.88-1.38c0.58-0.57,1.02-1.24,1.3-2.02c0.25,0.07,0.43,0.23,0.56,0.48c0.12,0.25,0.21,0.53,0.27,0.85
			c0.05,0.32,0.07,0.65,0.05,1.01c-0.02,0.35-0.04,0.67-0.08,0.96c-0.25,1.24-0.88,2.43-1.88,3.58c-1.01,1.15-2.01,2.25-3,3.32
			c0.21-0.25,0.52-0.49,0.93-0.74c0.41-0.25,0.8-0.44,1.19-0.58c0.39-0.14,0.71-0.19,0.96-0.16c0.25,0.04,0.32,0.19,0.21,0.48
			c-0.18,0.5-0.37,1.1-0.58,1.8c-0.21,0.71-0.41,1.34-0.58,1.91c-0.04,0.11-0.07,0.21-0.11,0.32c-0.04,0.11-0.07,0.2-0.11,0.27
			c0.99-1.06,1.94-2.31,2.86-3.74C580.77,611.27,581.72,609.55,582.71,607.54z M570.93,625.62c0.28-0.39,0.57-0.88,0.85-1.48
			c0.28-0.6,0.6-1.34,0.95-2.23c-0.78,0.64-1.48,1.22-2.12,1.75c-0.64,0.53-1.04,0.88-1.22,1.06c-0.42,0.42-0.66,0.82-0.72,1.19
			c-0.05,0.37,0.03,0.63,0.24,0.77c0.21,0.14,0.5,0.14,0.88,0C570.17,626.54,570.55,626.19,570.93,625.62z M571.57,604.51
			c-0.25-0.11-0.46-0.08-0.64,0.08c-0.18,0.16-0.29,0.37-0.34,0.64c-0.05,0.27-0.05,0.54,0.03,0.82c0.07,0.28,0.23,0.5,0.48,0.64
			C571.77,605.38,571.92,604.65,571.57,604.51z"/>
		<path d="M595.28,607.59c0.14-0.21,0.3-0.39,0.48-0.53c0.18-0.14,0.34-0.2,0.48-0.19c0.14,0.02,0.22,0.12,0.24,0.29
			c0.02,0.18-0.08,0.48-0.29,0.9c-0.21,0.42-0.6,1.16-1.17,2.2c-0.57,1.04-1.16,2.15-1.78,3.32c-0.62,1.17-1.2,2.27-1.75,3.32
			c-0.55,1.04-0.93,1.76-1.14,2.15c-0.85,1.52-1.64,2.18-2.36,1.99c-0.72-0.19-1.07-1.3-1.03-3.31c-0.35,0.95-0.81,1.72-1.38,2.28
			c-0.57,0.57-1.15,0.9-1.75,1.01c-0.6,0.11-1.19-0.02-1.78-0.37c-0.58-0.35-1.05-0.95-1.41-1.8c-0.35-0.85-0.57-1.96-0.64-3.34
			c-0.07-1.38,0.09-3.02,0.48-4.93c0.5-2.4,1.26-4.19,2.28-5.36c1.03-1.17,2.05-1.85,3.08-2.04c1.03-0.19,1.89,0.04,2.6,0.69
			c0.71,0.65,0.99,1.58,0.85,2.78c0.14-0.42,0.28-0.86,0.42-1.3c0.14-0.44,0.3-0.91,0.48-1.41c0.14-0.39,0.36-0.6,0.66-0.64
			c0.3-0.04,0.61,0.04,0.93,0.21c0.32,0.18,0.6,0.42,0.85,0.74c0.25,0.32,0.41,0.6,0.48,0.85c-0.81,1.63-1.5,3.29-2.07,4.99
			c-0.57,1.7-0.99,3.21-1.27,4.53c-0.28,1.33-0.45,2.34-0.5,3.05c-0.05,0.71,0.03,0.9,0.24,0.58c0.18-0.32,0.52-0.95,1.03-1.88
			c0.51-0.94,1.06-1.96,1.64-3.08s1.17-2.19,1.75-3.24C594.51,609.01,594.96,608.19,595.28,607.59z M587.22,614.64
			c0.21-1.41,0.58-3.06,1.11-4.93c0.14-1.2,0.04-2.1-0.29-2.71c-0.34-0.6-0.77-0.86-1.3-0.77c-0.53,0.09-1.1,0.53-1.7,1.33
			c-0.6,0.8-1.08,1.99-1.43,3.58c-0.57,2.58-0.8,4.55-0.69,5.91c0.11,1.36,0.39,2.17,0.85,2.41c0.46,0.25,1.02-0.04,1.67-0.87
			C586.09,617.76,586.69,616.45,587.22,614.64z"/>
		<path d="M608.86,607.64c0.11-0.25,0.24-0.44,0.4-0.58c0.16-0.14,0.31-0.2,0.45-0.19c0.14,0.02,0.22,0.12,0.24,0.32
			c0.02,0.19-0.04,0.5-0.19,0.93c-0.6,1.59-1.29,3.16-2.07,4.69c-0.78,1.54-1.64,2.92-2.6,4.14c-0.95,1.22-1.99,2.21-3.1,2.97
			c-1.11,0.76-2.29,1.16-3.53,1.19c-0.07,0.14-0.12,0.27-0.16,0.37c0.57,0.07,0.94,0.32,1.11,0.74c0.21,0.39,0.25,0.83,0.11,1.33
			c-0.14,0.49-0.37,0.9-0.69,1.22c-0.32,0.28-0.66,0.42-1.03,0.42c-0.37,0-0.69-0.1-0.96-0.29c-0.27-0.19-0.45-0.46-0.56-0.8
			c-0.11-0.34-0.07-0.72,0.11-1.14c0.11-0.25,0.29-0.32,0.56-0.21c0.27,0.11,0.34,0.3,0.24,0.58c-0.18,0.39-0.11,0.7,0.21,0.93
			c0.32,0.23,0.62,0.15,0.9-0.24c0.14-0.18,0.27-0.42,0.37-0.72c0.11-0.3,0.07-0.56-0.11-0.77c-0.21-0.25-0.5-0.28-0.85-0.11
			c-0.18,0.11-0.34,0.08-0.48-0.08c-0.14-0.16-0.18-0.33-0.11-0.5c0.07-0.14,0.13-0.27,0.19-0.4c0.05-0.12,0.11-0.26,0.19-0.4
			c-1.06-0.07-1.92-0.58-2.57-1.54c-0.65-0.95-1.1-2.11-1.33-3.47c-0.23-1.36-0.24-2.81-0.03-4.35c0.21-1.54,0.65-2.95,1.3-4.24
			c0.65-1.29,1.53-2.35,2.63-3.18c1.1-0.83,2.44-1.19,4.03-1.09c1.31,0.07,2.23,0.43,2.76,1.09c0.53,0.65,0.84,1.41,0.93,2.25
			c0.09,0.85,0.01,1.69-0.24,2.52c-0.25,0.83-0.5,1.46-0.74,1.88c-0.21,0.11-0.48,0.15-0.8,0.13c-0.32-0.02-0.65-0.06-0.98-0.13
			c-0.34-0.07-0.64-0.15-0.9-0.24c-0.27-0.09-0.45-0.17-0.56-0.24c0.11-0.07,0.28-0.33,0.53-0.77c0.25-0.44,0.45-0.91,0.61-1.41
			c0.16-0.49,0.21-0.95,0.16-1.38c-0.05-0.42-0.29-0.65-0.72-0.69c-0.78-0.07-1.49,0.19-2.15,0.8c-0.65,0.6-1.23,1.38-1.72,2.33
			c-0.5,0.95-0.88,2-1.14,3.13c-0.27,1.13-0.38,2.2-0.34,3.21c0.03,1.01,0.24,1.87,0.61,2.6c0.37,0.73,0.96,1.16,1.78,1.3
			c1.49,0.11,3.11-0.79,4.88-2.68C605.27,615.01,607.06,611.92,608.86,607.64z"/>
		<path d="M621.22,607.59c0.14-0.21,0.3-0.39,0.48-0.53c0.18-0.14,0.34-0.2,0.48-0.19c0.14,0.02,0.22,0.12,0.24,0.29
			c0.02,0.18-0.08,0.48-0.29,0.9c-0.21,0.42-0.6,1.16-1.17,2.2c-0.57,1.04-1.16,2.15-1.78,3.32c-0.62,1.17-1.2,2.27-1.75,3.32
			c-0.55,1.04-0.93,1.76-1.14,2.15c-0.85,1.52-1.64,2.18-2.36,1.99c-0.72-0.19-1.07-1.3-1.03-3.31c-0.35,0.95-0.81,1.72-1.38,2.28
			c-0.57,0.57-1.15,0.9-1.75,1.01c-0.6,0.11-1.19-0.02-1.78-0.37c-0.58-0.35-1.05-0.95-1.41-1.8c-0.35-0.85-0.57-1.96-0.64-3.34
			c-0.07-1.38,0.09-3.02,0.48-4.93c0.5-2.4,1.26-4.19,2.28-5.36c1.03-1.17,2.05-1.85,3.08-2.04c1.03-0.19,1.89,0.04,2.6,0.69
			c0.71,0.65,0.99,1.58,0.85,2.78c0.14-0.42,0.28-0.86,0.42-1.3c0.14-0.44,0.3-0.91,0.48-1.41c0.14-0.39,0.36-0.6,0.66-0.64
			c0.3-0.04,0.61,0.04,0.93,0.21c0.32,0.18,0.6,0.42,0.85,0.74c0.25,0.32,0.41,0.6,0.48,0.85c-0.81,1.63-1.5,3.29-2.07,4.99
			c-0.57,1.7-0.99,3.21-1.27,4.53c-0.28,1.33-0.45,2.34-0.5,3.05c-0.05,0.71,0.03,0.9,0.24,0.58c0.18-0.32,0.52-0.95,1.03-1.88
			c0.51-0.94,1.06-1.96,1.64-3.08s1.17-2.19,1.75-3.24C620.45,609.01,620.9,608.19,621.22,607.59z M613.15,614.64
			c0.21-1.41,0.58-3.06,1.11-4.93c0.14-1.2,0.04-2.1-0.29-2.71c-0.34-0.6-0.77-0.86-1.3-0.77c-0.53,0.09-1.1,0.53-1.7,1.33
			c-0.6,0.8-1.08,1.99-1.43,3.58c-0.57,2.58-0.8,4.55-0.69,5.91c0.11,1.36,0.39,2.17,0.85,2.41c0.46,0.25,1.02-0.04,1.67-0.87
			C612.03,617.76,612.62,616.45,613.15,614.64z M615.75,600.53c0.39,0.28,0.47,0.63,0.24,1.03c-0.23,0.41-0.49,0.66-0.77,0.77
			c-0.35-0.21-0.68-0.34-0.98-0.37c-0.3-0.04-0.61-0.05-0.93-0.05c-0.32,0-0.65-0.02-0.98-0.05c-0.34-0.04-0.72-0.16-1.14-0.37
			c-0.32-0.25-0.34-0.52-0.08-0.82c0.27-0.3,0.59-0.52,0.98-0.66c0.39,0.25,0.76,0.39,1.11,0.42c0.35,0.04,0.68,0.04,0.98,0
			c0.3-0.03,0.58-0.06,0.85-0.08C615.3,600.33,615.54,600.39,615.75,600.53z"/>
		<path d="M633.84,607.59c0.14-0.25,0.28-0.43,0.42-0.56c0.14-0.12,0.27-0.16,0.37-0.11c0.11,0.05,0.17,0.19,0.19,0.4
			c0.02,0.21-0.04,0.5-0.19,0.85c-0.21,0.53-0.47,1.14-0.77,1.83c-0.3,0.69-0.65,1.38-1.03,2.07c-0.39,0.69-0.83,1.34-1.33,1.96
			c-0.5,0.62-1.04,1.12-1.64,1.51c-0.28,0.71-0.65,1.42-1.09,2.15c-0.44,0.73-0.96,1.36-1.56,1.91c-0.6,0.55-1.28,0.96-2.04,1.25
			c-0.76,0.28-1.62,0.32-2.57,0.11c-0.95-0.25-1.72-0.84-2.28-1.78c-0.57-0.94-0.95-2.02-1.14-3.26c-0.19-1.24-0.23-2.55-0.11-3.92
			c0.12-1.38,0.41-2.65,0.85-3.82c0.44-1.17,1.01-2.15,1.7-2.94c0.69-0.8,1.51-1.21,2.47-1.25c0.11-0.03,0.27-0.02,0.48,0.05
			c0.42-0.39,0.89-0.66,1.41-0.82c0.51-0.16,1.07-0.15,1.67,0.03c0.88,0.21,1.59,0.64,2.12,1.27c0.53,0.64,0.9,1.41,1.11,2.33
			c0.21,0.92,0.28,1.94,0.21,3.05c-0.07,1.11-0.25,2.25-0.53,3.42c0,0.14-0.02,0.25-0.05,0.32c0.71-0.74,1.32-1.66,1.83-2.76
			C632.84,609.78,633.35,608.69,633.84,607.59z M623.13,619.42c0.96,0.35,1.8,0.21,2.55-0.42c0.74-0.64,1.36-1.52,1.86-2.65
			c-0.18,0-0.34,0-0.48,0c-0.14,0-0.3-0.02-0.48-0.05c-0.78-0.14-1.45-0.41-2.02-0.8c-0.57-0.39-1.03-0.87-1.38-1.43
			c-0.35-0.57-0.61-1.19-0.77-1.88c-0.16-0.69-0.24-1.41-0.24-2.15c-0.32,0.92-0.57,1.88-0.74,2.89c-0.18,1.01-0.25,1.96-0.21,2.86
			c0.04,0.9,0.2,1.68,0.5,2.33C622.02,618.77,622.49,619.2,623.13,619.42z M627.26,606.16c-0.57-0.14-1.09-0.06-1.56,0.24
			c-0.48,0.3-0.88,0.73-1.22,1.3c-0.34,0.57-0.58,1.21-0.72,1.94c-0.14,0.73-0.15,1.43-0.03,2.12c0.12,0.69,0.41,1.33,0.87,1.91
			c0.46,0.58,1.13,1,2.02,1.25c0.28,0.07,0.53,0.12,0.74,0.13c0.21,0.02,0.42,0.03,0.64,0.03c0.32-0.92,0.54-1.88,0.66-2.89
			c0.12-1.01,0.16-1.94,0.11-2.78c-0.05-0.85-0.2-1.57-0.45-2.17C628.08,606.62,627.72,606.26,627.26,606.16z"/>
		<path d="M656.7,607.64c0.11-0.25,0.24-0.44,0.4-0.58c0.16-0.14,0.3-0.2,0.42-0.19c0.12,0.02,0.2,0.12,0.24,0.32
			c0.03,0.19-0.02,0.52-0.16,0.98c-0.53,1.49-1.13,2.66-1.8,3.53c-0.67,0.87-1.36,1.55-2.07,2.04c0.18,0.46,0.29,0.96,0.34,1.49
			c0.05,0.53-0.01,1.11-0.19,1.75c-0.18,0.74-0.49,1.38-0.93,1.91c-0.44,0.53-0.96,0.96-1.54,1.3c-0.58,0.34-1.22,0.58-1.91,0.74
			c-0.69,0.16-1.37,0.24-2.04,0.24c-1.34-0.04-2.35-0.44-3.02-1.22c-0.67-0.78-1.01-1.63-1.01-2.55c0-0.92,0.34-1.76,1.03-2.52
			c0.69-0.76,1.76-1.14,3.21-1.14c0.39,0,0.77,0.01,1.14,0.03c0.37,0.02,0.75-0.01,1.14-0.08c-0.42-0.46-0.91-0.88-1.46-1.25
			c-0.55-0.37-1.09-0.72-1.62-1.03c-1.17-0.67-1.84-1.39-2.02-2.15c-0.18-0.76-0.11-1.55,0.21-2.36c0.21-0.57,0.47-1.12,0.77-1.67
			c0.3-0.55,0.56-1.02,0.77-1.41c0.21-0.42,0.48-0.64,0.8-0.66c0.32-0.02,0.63,0.06,0.93,0.24c0.3,0.18,0.57,0.42,0.82,0.74
			c0.25,0.32,0.41,0.6,0.48,0.85c-0.18,0.21-0.42,0.54-0.72,0.98c-0.3,0.44-0.56,0.88-0.77,1.3c-0.28,0.53-0.27,0.99,0.03,1.38
			c0.3,0.39,0.73,0.78,1.3,1.17c0.57,0.39,1.19,0.81,1.88,1.27c0.69,0.46,1.28,1.01,1.78,1.64c0.67-0.42,1.31-1.03,1.91-1.83
			C655.66,610.11,656.2,609.02,656.7,607.64z M651.18,616.98c0.14-0.71,0.02-1.41-0.37-2.12c-0.53,0.07-1.04,0.11-1.54,0.11
			c-0.5,0-0.99,0-1.48,0c-0.99,0-1.72,0.26-2.2,0.77c-0.48,0.51-0.72,1.08-0.72,1.7c0,0.62,0.21,1.19,0.64,1.72
			c0.42,0.53,1.04,0.81,1.86,0.85c0.92,0.07,1.72-0.16,2.41-0.69C650.47,618.78,650.94,618,651.18,616.98z"/>
		<path d="M669.27,607.59c0.14-0.25,0.28-0.43,0.42-0.56c0.14-0.12,0.27-0.16,0.37-0.11c0.11,0.05,0.17,0.19,0.19,0.4
			c0.02,0.21-0.05,0.5-0.19,0.85c-0.21,0.53-0.47,1.14-0.77,1.83c-0.3,0.69-0.65,1.38-1.03,2.07c-0.39,0.69-0.83,1.34-1.33,1.96
			c-0.49,0.62-1.04,1.12-1.64,1.51c-0.28,0.71-0.65,1.42-1.09,2.15c-0.44,0.73-0.96,1.36-1.57,1.91c-0.6,0.55-1.28,0.96-2.04,1.25
			c-0.76,0.28-1.62,0.32-2.57,0.11c-0.95-0.25-1.72-0.84-2.28-1.78c-0.57-0.94-0.95-2.02-1.14-3.26c-0.19-1.24-0.23-2.55-0.11-3.92
			c0.12-1.38,0.41-2.65,0.85-3.82c0.44-1.17,1.01-2.15,1.7-2.94c0.69-0.8,1.51-1.21,2.47-1.25c0.11-0.03,0.27-0.02,0.48,0.05
			c0.42-0.39,0.89-0.66,1.41-0.82c0.51-0.16,1.07-0.15,1.67,0.03c0.88,0.21,1.59,0.64,2.12,1.27c0.53,0.64,0.9,1.41,1.11,2.33
			c0.21,0.92,0.28,1.94,0.21,3.05c-0.07,1.11-0.25,2.25-0.53,3.42c0,0.14-0.02,0.25-0.05,0.32c0.71-0.74,1.32-1.66,1.83-2.76
			C668.27,609.78,668.78,608.69,669.27,607.59z M658.56,619.42c0.96,0.35,1.8,0.21,2.55-0.42c0.74-0.64,1.36-1.52,1.86-2.65
			c-0.18,0-0.34,0-0.48,0c-0.14,0-0.3-0.02-0.48-0.05c-0.78-0.14-1.45-0.41-2.02-0.8c-0.57-0.39-1.03-0.87-1.38-1.43
			c-0.35-0.57-0.61-1.19-0.77-1.88c-0.16-0.69-0.24-1.41-0.24-2.15c-0.32,0.92-0.57,1.88-0.74,2.89c-0.18,1.01-0.25,1.96-0.21,2.86
			c0.04,0.9,0.2,1.68,0.5,2.33C657.45,618.77,657.92,619.2,658.56,619.42z M662.69,606.16c-0.57-0.14-1.09-0.06-1.56,0.24
			c-0.48,0.3-0.88,0.73-1.22,1.3c-0.34,0.57-0.58,1.21-0.72,1.94c-0.14,0.73-0.15,1.43-0.03,2.12c0.12,0.69,0.41,1.33,0.87,1.91
			c0.46,0.58,1.13,1,2.02,1.25c0.28,0.07,0.53,0.12,0.74,0.13c0.21,0.02,0.42,0.03,0.64,0.03c0.32-0.92,0.54-1.88,0.66-2.89
			c0.12-1.01,0.16-1.94,0.11-2.78c-0.05-0.85-0.2-1.57-0.45-2.17C663.51,606.62,663.15,606.26,662.69,606.16z"/>
		<path d="M683.27,607.54c0.25-0.53,0.5-0.75,0.77-0.66c0.27,0.09,0.26,0.49-0.03,1.19c-0.21,0.53-0.47,1.15-0.77,1.86
			c-0.3,0.71-0.65,1.41-1.06,2.1c-0.41,0.69-0.87,1.35-1.38,1.99c-0.51,0.64-1.07,1.15-1.67,1.54c-0.32,0.71-0.71,1.43-1.17,2.17
			c-0.46,0.74-1,1.39-1.62,1.94c-0.62,0.55-1.33,0.95-2.12,1.22c-0.8,0.27-1.67,0.29-2.63,0.08c-0.88-0.25-1.63-0.8-2.23-1.64
			c-0.04,0.35-0.05,0.68-0.05,0.98c0,0.3,0,0.58,0,0.82c-0.32,0-0.65-0.22-0.98-0.66c-0.34-0.44-0.59-1.15-0.77-2.12
			c-0.18-0.97-0.24-2.25-0.19-3.85c0.05-1.59,0.29-3.53,0.72-5.81c0.42-2.28,1.07-4.95,1.94-8.01c0.87-3.06,2.02-6.55,3.47-10.48
			c0.14-0.39,0.4-0.57,0.77-0.53c0.37,0.04,0.75,0.18,1.14,0.42c0.39,0.25,0.75,0.56,1.09,0.93c0.34,0.37,0.54,0.7,0.61,0.98
			c-0.92,2.02-1.76,4.04-2.52,6.07c-0.76,2.03-1.44,4.02-2.04,5.97c0.11,0,0.21-0.01,0.32-0.03c0.11-0.02,0.19-0.03,0.26-0.03
			c0.25,0,0.42,0.02,0.53,0.05c0.92-0.78,1.98-1.04,3.18-0.8c0.92,0.21,1.64,0.65,2.17,1.3c0.53,0.65,0.9,1.44,1.11,2.36
			c0.21,0.92,0.28,1.94,0.21,3.05c-0.07,1.11-0.23,2.25-0.48,3.42c-0.04,0.04-0.05,0.07-0.05,0.11c0,0.04-0.02,0.07-0.05,0.11
			c0.71-0.74,1.34-1.67,1.91-2.78C682.25,609.68,682.78,608.6,683.27,607.54z M672.19,619.42c0.99,0.35,1.86,0.21,2.63-0.42
			c0.76-0.64,1.39-1.5,1.88-2.6c-0.18,0-0.34-0.01-0.48-0.03c-0.14-0.02-0.3-0.04-0.48-0.08c-1.63-0.28-2.79-1.03-3.5-2.23
			c-0.71-1.2-1.04-2.55-1.01-4.03c-0.35,0.92-0.62,1.88-0.8,2.89c-0.18,1.01-0.24,1.96-0.19,2.86c0.05,0.9,0.23,1.68,0.53,2.33
			C671.08,618.77,671.55,619.2,672.19,619.42z M676.43,606.21c-0.57-0.14-1.11-0.06-1.62,0.24c-0.51,0.3-0.94,0.73-1.27,1.27
			c-0.34,0.55-0.58,1.19-0.72,1.91c-0.14,0.73-0.14,1.43,0,2.12c0.14,0.69,0.45,1.33,0.93,1.91c0.48,0.58,1.16,1,2.04,1.25
			c0.53,0.18,1.01,0.23,1.43,0.16c0.32-0.92,0.54-1.87,0.66-2.86c0.12-0.99,0.16-1.91,0.11-2.76c-0.05-0.85-0.2-1.57-0.45-2.17
			C677.3,606.67,676.93,606.32,676.43,606.21z"/>
		<path d="M707.62,607.48c0.11-0.21,0.26-0.39,0.45-0.53c0.19-0.14,0.35-0.2,0.48-0.19c0.12,0.02,0.2,0.12,0.24,0.29
			c0.04,0.18-0.05,0.48-0.27,0.9c-0.25,0.53-0.64,1.33-1.17,2.39c-0.53,1.06-1.08,2.17-1.64,3.32c-0.57,1.15-1.11,2.22-1.62,3.21
			c-0.51,0.99-0.88,1.68-1.09,2.07c-0.67,1.17-1.27,1.85-1.8,2.04c-0.53,0.19-0.9-0.19-1.11-1.14c-0.21-0.95-0.19-2.51,0.05-4.67
			c0.25-2.16,0.83-4.97,1.75-8.43c-0.67,0.25-1.38,0.74-2.12,1.49c-0.74,0.74-1.44,1.56-2.1,2.47c-0.65,0.9-1.21,1.79-1.67,2.65
			c-0.46,0.87-0.74,1.55-0.85,2.04c-0.28,1.2-0.5,2.3-0.66,3.29c-0.16,0.99-0.2,1.77-0.13,2.33c-0.46,0-0.84-0.34-1.14-1.03
			c-0.3-0.69-0.42-1.73-0.37-3.13c0.05-1.4,0.31-3.17,0.77-5.33c0.46-2.16,1.24-4.7,2.33-7.64c0.14-0.42,0.35-0.65,0.64-0.69
			c0.28-0.03,0.58,0.04,0.9,0.24c0.32,0.19,0.61,0.44,0.87,0.74c0.27,0.3,0.43,0.59,0.5,0.88c-0.35,0.5-0.69,1.11-1.01,1.86
			c-0.32,0.74-0.64,1.56-0.95,2.44c0.46-0.74,0.97-1.49,1.54-2.25c0.57-0.76,1.14-1.44,1.72-2.04c0.58-0.6,1.15-1.09,1.7-1.46
			c0.55-0.37,1.05-0.56,1.51-0.56c0.64,0.32,1.07,0.77,1.3,1.35c0.23,0.58,0.38,1.07,0.45,1.46c-0.81,2.23-1.46,4.17-1.94,5.83
			c-0.48,1.66-0.82,3.02-1.03,4.06c-0.21,1.04-0.32,1.78-0.32,2.2c0,0.42,0.09,0.5,0.27,0.21c0.21-0.32,0.55-0.93,1.01-1.83
			c0.46-0.9,0.97-1.9,1.54-3c0.57-1.1,1.12-2.17,1.67-3.24C706.87,609.02,707.3,608.15,707.62,607.48z"/>
		<path d="M720.45,607.59c0.14-0.25,0.28-0.43,0.42-0.56c0.14-0.12,0.27-0.16,0.37-0.11c0.11,0.05,0.17,0.19,0.19,0.4
			c0.02,0.21-0.05,0.5-0.19,0.85c-0.21,0.53-0.47,1.14-0.77,1.83c-0.3,0.69-0.65,1.38-1.03,2.07c-0.39,0.69-0.83,1.34-1.33,1.96
			c-0.49,0.62-1.04,1.12-1.64,1.51c-0.28,0.71-0.65,1.42-1.09,2.15c-0.44,0.73-0.96,1.36-1.57,1.91c-0.6,0.55-1.28,0.96-2.04,1.25
			c-0.76,0.28-1.62,0.32-2.57,0.11c-0.96-0.25-1.72-0.84-2.28-1.78c-0.57-0.94-0.95-2.02-1.14-3.26c-0.19-1.24-0.23-2.55-0.11-3.92
			c0.12-1.38,0.41-2.65,0.85-3.82c0.44-1.17,1.01-2.15,1.7-2.94c0.69-0.8,1.51-1.21,2.47-1.25c0.11-0.03,0.27-0.02,0.48,0.05
			c0.42-0.39,0.89-0.66,1.41-0.82c0.51-0.16,1.07-0.15,1.67,0.03c0.88,0.21,1.59,0.64,2.12,1.27c0.53,0.64,0.9,1.41,1.11,2.33
			c0.21,0.92,0.28,1.94,0.21,3.05c-0.07,1.11-0.25,2.25-0.53,3.42c0,0.14-0.02,0.25-0.05,0.32c0.71-0.74,1.32-1.66,1.83-2.76
			C719.46,609.78,719.96,608.69,720.45,607.59z M709.74,619.42c0.95,0.35,1.8,0.21,2.55-0.42c0.74-0.64,1.36-1.52,1.86-2.65
			c-0.18,0-0.34,0-0.48,0c-0.14,0-0.3-0.02-0.48-0.05c-0.78-0.14-1.45-0.41-2.02-0.8c-0.57-0.39-1.03-0.87-1.38-1.43
			c-0.35-0.57-0.61-1.19-0.77-1.88c-0.16-0.69-0.24-1.41-0.24-2.15c-0.32,0.92-0.57,1.88-0.74,2.89c-0.18,1.01-0.25,1.96-0.21,2.86
			c0.04,0.9,0.2,1.68,0.5,2.33C708.63,618.77,709.1,619.2,709.74,619.42z M713.88,606.16c-0.57-0.14-1.09-0.06-1.57,0.24
			c-0.48,0.3-0.88,0.73-1.22,1.3c-0.34,0.57-0.58,1.21-0.72,1.94c-0.14,0.73-0.15,1.43-0.03,2.12c0.12,0.69,0.42,1.33,0.88,1.91
			c0.46,0.58,1.13,1,2.02,1.25c0.28,0.07,0.53,0.12,0.74,0.13c0.21,0.02,0.42,0.03,0.64,0.03c0.32-0.92,0.54-1.88,0.66-2.89
			c0.12-1.01,0.16-1.94,0.11-2.78c-0.05-0.85-0.2-1.57-0.45-2.17C714.69,606.62,714.34,606.26,713.88,606.16z"/>
		<path d="M731.06,607.64c0.11-0.25,0.24-0.44,0.4-0.58c0.16-0.14,0.3-0.2,0.42-0.19c0.12,0.02,0.2,0.12,0.24,0.32
			c0.04,0.19-0.02,0.52-0.16,0.98c-0.53,1.49-1.13,2.66-1.8,3.53c-0.67,0.87-1.36,1.55-2.07,2.04c0.18,0.46,0.29,0.96,0.34,1.49
			c0.05,0.53-0.01,1.11-0.19,1.75c-0.18,0.74-0.49,1.38-0.93,1.91c-0.44,0.53-0.95,0.96-1.54,1.3c-0.58,0.34-1.22,0.58-1.91,0.74
			c-0.69,0.16-1.37,0.24-2.04,0.24c-1.34-0.04-2.35-0.44-3.02-1.22c-0.67-0.78-1.01-1.63-1.01-2.55c0-0.92,0.34-1.76,1.03-2.52
			c0.69-0.76,1.76-1.14,3.21-1.14c0.39,0,0.77,0.01,1.14,0.03c0.37,0.02,0.75-0.01,1.14-0.08c-0.42-0.46-0.91-0.88-1.46-1.25
			c-0.55-0.37-1.09-0.72-1.62-1.03c-1.17-0.67-1.84-1.39-2.02-2.15c-0.18-0.76-0.11-1.55,0.21-2.36c0.21-0.57,0.47-1.12,0.77-1.67
			c0.3-0.55,0.56-1.02,0.77-1.41c0.21-0.42,0.48-0.64,0.8-0.66c0.32-0.02,0.63,0.06,0.93,0.24c0.3,0.18,0.57,0.42,0.82,0.74
			c0.25,0.32,0.41,0.6,0.48,0.85c-0.18,0.21-0.42,0.54-0.72,0.98c-0.3,0.44-0.56,0.88-0.77,1.3c-0.28,0.53-0.27,0.99,0.03,1.38
			c0.3,0.39,0.73,0.78,1.3,1.17c0.57,0.39,1.19,0.81,1.88,1.27c0.69,0.46,1.28,1.01,1.78,1.64c0.67-0.42,1.31-1.03,1.91-1.83
			C730.02,610.11,730.57,609.02,731.06,607.64z M725.55,616.98c0.14-0.71,0.02-1.41-0.37-2.12c-0.53,0.07-1.04,0.11-1.54,0.11
			c-0.5,0-0.99,0-1.49,0c-0.99,0-1.72,0.26-2.2,0.77c-0.48,0.51-0.72,1.08-0.72,1.7c0,0.62,0.21,1.19,0.64,1.72
			c0.42,0.53,1.04,0.81,1.86,0.85c0.92,0.07,1.72-0.16,2.41-0.69C724.83,618.78,725.3,618,725.55,616.98z"/>
		<path d="M741.78,607.64c0.11-0.25,0.24-0.44,0.4-0.58c0.16-0.14,0.3-0.2,0.42-0.19c0.12,0.02,0.2,0.12,0.24,0.32
			c0.04,0.19-0.02,0.52-0.16,0.98c-0.53,1.49-1.13,2.66-1.8,3.53c-0.67,0.87-1.36,1.55-2.07,2.04c0.18,0.46,0.29,0.96,0.34,1.49
			c0.05,0.53-0.01,1.11-0.19,1.75c-0.18,0.74-0.49,1.38-0.93,1.91c-0.44,0.53-0.95,0.96-1.54,1.3c-0.58,0.34-1.22,0.58-1.91,0.74
			c-0.69,0.16-1.37,0.24-2.04,0.24c-1.34-0.04-2.35-0.44-3.02-1.22c-0.67-0.78-1.01-1.63-1.01-2.55c0-0.92,0.34-1.76,1.03-2.52
			c0.69-0.76,1.76-1.14,3.21-1.14c0.39,0,0.77,0.01,1.14,0.03c0.37,0.02,0.75-0.01,1.14-0.08c-0.42-0.46-0.91-0.88-1.46-1.25
			c-0.55-0.37-1.09-0.72-1.62-1.03c-1.17-0.67-1.84-1.39-2.02-2.15c-0.18-0.76-0.11-1.55,0.21-2.36c0.21-0.57,0.47-1.12,0.77-1.67
			c0.3-0.55,0.56-1.02,0.77-1.41c0.21-0.42,0.48-0.64,0.8-0.66c0.32-0.02,0.63,0.06,0.93,0.24c0.3,0.18,0.57,0.42,0.82,0.74
			c0.25,0.32,0.41,0.6,0.48,0.85c-0.18,0.21-0.42,0.54-0.72,0.98c-0.3,0.44-0.56,0.88-0.77,1.3c-0.28,0.53-0.27,0.99,0.03,1.38
			c0.3,0.39,0.73,0.78,1.3,1.17c0.57,0.39,1.19,0.81,1.88,1.27c0.69,0.46,1.28,1.01,1.78,1.64c0.67-0.42,1.31-1.03,1.91-1.83
			C740.73,610.11,741.28,609.02,741.78,607.64z M736.26,616.98c0.14-0.71,0.02-1.41-0.37-2.12c-0.53,0.07-1.04,0.11-1.54,0.11
			s-0.99,0-1.49,0c-0.99,0-1.72,0.26-2.2,0.77c-0.48,0.51-0.72,1.08-0.72,1.7c0,0.62,0.21,1.19,0.64,1.72
			c0.42,0.53,1.04,0.81,1.86,0.85c0.92,0.07,1.72-0.16,2.41-0.69C735.54,618.78,736.01,618,736.26,616.98z"/>
		<path d="M754.35,607.59c0.14-0.25,0.28-0.43,0.42-0.56c0.14-0.12,0.27-0.16,0.37-0.11c0.11,0.05,0.17,0.19,0.19,0.4
			c0.02,0.21-0.05,0.5-0.19,0.85c-0.21,0.53-0.47,1.14-0.77,1.83c-0.3,0.69-0.65,1.38-1.03,2.07c-0.39,0.69-0.83,1.34-1.33,1.96
			c-0.49,0.62-1.04,1.12-1.64,1.51c-0.28,0.71-0.65,1.42-1.09,2.15c-0.44,0.73-0.96,1.36-1.57,1.91c-0.6,0.55-1.28,0.96-2.04,1.25
			c-0.76,0.28-1.62,0.32-2.57,0.11c-0.95-0.25-1.72-0.84-2.28-1.78c-0.57-0.94-0.95-2.02-1.14-3.26c-0.19-1.24-0.23-2.55-0.11-3.92
			s0.41-2.65,0.85-3.82c0.44-1.17,1.01-2.15,1.7-2.94c0.69-0.8,1.51-1.21,2.47-1.25c0.11-0.03,0.27-0.02,0.48,0.05
			c0.42-0.39,0.89-0.66,1.41-0.82c0.51-0.16,1.07-0.15,1.67,0.03c0.88,0.21,1.59,0.64,2.12,1.27c0.53,0.64,0.9,1.41,1.11,2.33
			c0.21,0.92,0.28,1.94,0.21,3.05c-0.07,1.11-0.25,2.25-0.53,3.42c0,0.14-0.02,0.25-0.05,0.32c0.71-0.74,1.32-1.66,1.83-2.76
			C753.35,609.78,753.85,608.69,754.35,607.59z M743.63,619.42c0.95,0.35,1.8,0.21,2.55-0.42c0.74-0.64,1.36-1.52,1.86-2.65
			c-0.18,0-0.34,0-0.48,0c-0.14,0-0.3-0.02-0.48-0.05c-0.78-0.14-1.45-0.41-2.02-0.8c-0.57-0.39-1.03-0.87-1.38-1.43
			c-0.35-0.57-0.61-1.19-0.77-1.88c-0.16-0.69-0.24-1.41-0.24-2.15c-0.32,0.92-0.57,1.88-0.74,2.89c-0.18,1.01-0.25,1.96-0.21,2.86
			c0.04,0.9,0.2,1.68,0.5,2.33C742.53,618.77,743,619.2,743.63,619.42z M747.77,606.16c-0.57-0.14-1.09-0.06-1.57,0.24
			c-0.48,0.3-0.88,0.73-1.22,1.3c-0.34,0.57-0.58,1.21-0.72,1.94c-0.14,0.73-0.15,1.43-0.03,2.12c0.12,0.69,0.42,1.33,0.88,1.91
			c0.46,0.58,1.13,1,2.02,1.25c0.28,0.07,0.53,0.12,0.74,0.13c0.21,0.02,0.42,0.03,0.64,0.03c0.32-0.92,0.54-1.88,0.66-2.89
			c0.12-1.01,0.16-1.94,0.11-2.78c-0.05-0.85-0.2-1.57-0.45-2.17C748.58,606.62,748.23,606.26,747.77,606.16z"/>
		<path d="M779.86,607.59c0.11-0.25,0.24-0.44,0.4-0.58c0.16-0.14,0.31-0.2,0.45-0.19c0.14,0.02,0.22,0.12,0.24,0.32
			c0.02,0.19-0.05,0.5-0.19,0.93c-0.6,1.63-1.31,3.23-2.12,4.8c-0.81,1.57-1.72,2.98-2.73,4.22c-1.01,1.24-2.09,2.23-3.24,2.97
			c-1.15,0.74-2.36,1.08-3.63,1.01c-1.17,0.07-2.11-0.34-2.84-1.22c-0.72-0.88-1.23-2.01-1.51-3.37c-0.28-1.36-0.34-2.85-0.16-4.46
			c0.18-1.61,0.58-3.08,1.22-4.43c0.64-1.34,1.52-2.45,2.65-3.32c1.13-0.87,2.51-1.25,4.14-1.14c1.31,0.07,2.23,0.43,2.76,1.09
			c0.53,0.65,0.84,1.41,0.93,2.25c0.09,0.85,0.01,1.69-0.24,2.52c-0.25,0.83-0.5,1.46-0.74,1.88c-0.21,0.11-0.48,0.15-0.8,0.13
			c-0.32-0.02-0.65-0.06-0.98-0.13c-0.34-0.07-0.64-0.15-0.9-0.24c-0.27-0.09-0.45-0.17-0.56-0.24c0.11-0.03,0.28-0.27,0.53-0.72
			c0.25-0.44,0.45-0.92,0.61-1.43c0.16-0.51,0.21-0.98,0.16-1.41c-0.05-0.42-0.29-0.65-0.72-0.69c-0.74-0.07-1.45,0.2-2.12,0.8
			c-0.67,0.6-1.26,1.38-1.75,2.33c-0.49,0.96-0.87,2-1.14,3.13c-0.27,1.13-0.38,2.2-0.34,3.21s0.24,1.87,0.61,2.6
			c0.37,0.73,0.96,1.16,1.78,1.3c1.49,0.14,3.11-0.74,4.88-2.65C776.27,614.96,778.06,611.87,779.86,607.59z"/>
		<path d="M791.9,607.59c0.14-0.25,0.28-0.43,0.42-0.56c0.14-0.12,0.27-0.16,0.37-0.11c0.11,0.05,0.17,0.19,0.19,0.4
			c0.02,0.21-0.05,0.5-0.19,0.85c-0.21,0.53-0.47,1.14-0.77,1.83c-0.3,0.69-0.65,1.38-1.03,2.07c-0.39,0.69-0.83,1.34-1.33,1.96
			c-0.49,0.62-1.04,1.12-1.64,1.51c-0.28,0.71-0.65,1.42-1.09,2.15c-0.44,0.73-0.96,1.36-1.57,1.91c-0.6,0.55-1.28,0.96-2.04,1.25
			c-0.76,0.28-1.62,0.32-2.57,0.11c-0.96-0.25-1.72-0.84-2.28-1.78c-0.57-0.94-0.95-2.02-1.14-3.26c-0.19-1.24-0.23-2.55-0.11-3.92
			c0.12-1.38,0.41-2.65,0.85-3.82c0.44-1.17,1.01-2.15,1.7-2.94c0.69-0.8,1.51-1.21,2.47-1.25c0.11-0.03,0.27-0.02,0.48,0.05
			c0.42-0.39,0.89-0.66,1.41-0.82c0.51-0.16,1.07-0.15,1.67,0.03c0.88,0.21,1.59,0.64,2.12,1.27c0.53,0.64,0.9,1.41,1.11,2.33
			c0.21,0.92,0.28,1.94,0.21,3.05c-0.07,1.11-0.25,2.25-0.53,3.42c0,0.14-0.02,0.25-0.05,0.32c0.71-0.74,1.32-1.66,1.83-2.76
			C790.9,609.78,791.4,608.69,791.9,607.59z M781.18,619.42c0.95,0.35,1.8,0.21,2.55-0.42c0.74-0.64,1.36-1.52,1.86-2.65
			c-0.18,0-0.34,0-0.48,0c-0.14,0-0.3-0.02-0.48-0.05c-0.78-0.14-1.45-0.41-2.02-0.8c-0.57-0.39-1.03-0.87-1.38-1.43
			c-0.35-0.57-0.61-1.19-0.77-1.88c-0.16-0.69-0.24-1.41-0.24-2.15c-0.32,0.92-0.57,1.88-0.74,2.89c-0.18,1.01-0.25,1.96-0.21,2.86
			c0.04,0.9,0.2,1.68,0.5,2.33C780.08,618.77,780.55,619.2,781.18,619.42z M785.32,606.16c-0.57-0.14-1.09-0.06-1.57,0.24
			c-0.48,0.3-0.88,0.73-1.22,1.3c-0.34,0.57-0.58,1.21-0.72,1.94c-0.14,0.73-0.15,1.43-0.03,2.12c0.12,0.69,0.42,1.33,0.88,1.91
			c0.46,0.58,1.13,1,2.02,1.25c0.28,0.07,0.53,0.12,0.74,0.13c0.21,0.02,0.42,0.03,0.64,0.03c0.32-0.92,0.54-1.88,0.66-2.89
			c0.12-1.01,0.16-1.94,0.11-2.78c-0.05-0.85-0.2-1.57-0.45-2.17C786.13,606.62,785.78,606.26,785.32,606.16z"/>
		<path d="M803.88,607.48c0.11-0.21,0.26-0.39,0.45-0.53c0.19-0.14,0.35-0.2,0.48-0.19c0.12,0.02,0.2,0.12,0.24,0.29
			c0.04,0.18-0.05,0.48-0.27,0.9c-0.25,0.53-0.64,1.33-1.17,2.39c-0.53,1.06-1.08,2.17-1.64,3.32c-0.57,1.15-1.11,2.22-1.62,3.21
			c-0.51,0.99-0.88,1.68-1.09,2.07c-0.67,1.17-1.27,1.85-1.8,2.04c-0.53,0.19-0.9-0.19-1.11-1.14c-0.21-0.95-0.19-2.51,0.05-4.67
			c0.25-2.16,0.83-4.97,1.75-8.43c-0.67,0.25-1.38,0.74-2.12,1.49c-0.74,0.74-1.44,1.56-2.1,2.47c-0.65,0.9-1.21,1.79-1.67,2.65
			c-0.46,0.87-0.74,1.55-0.85,2.04c-0.28,1.2-0.5,2.3-0.66,3.29c-0.16,0.99-0.2,1.77-0.13,2.33c-0.46,0-0.84-0.34-1.14-1.03
			c-0.3-0.69-0.42-1.73-0.37-3.13c0.05-1.4,0.31-3.17,0.77-5.33c0.46-2.16,1.24-4.7,2.33-7.64c0.14-0.42,0.35-0.65,0.64-0.69
			c0.28-0.03,0.58,0.04,0.9,0.24c0.32,0.19,0.61,0.44,0.87,0.74c0.27,0.3,0.43,0.59,0.5,0.88c-0.35,0.5-0.69,1.11-1.01,1.86
			c-0.32,0.74-0.64,1.56-0.95,2.44c0.46-0.74,0.97-1.49,1.54-2.25c0.57-0.76,1.14-1.44,1.72-2.04c0.58-0.6,1.15-1.09,1.7-1.46
			c0.55-0.37,1.05-0.56,1.51-0.56c0.64,0.32,1.07,0.77,1.3,1.35c0.23,0.58,0.38,1.07,0.45,1.46c-0.81,2.23-1.46,4.17-1.94,5.83
			c-0.48,1.66-0.82,3.02-1.03,4.06c-0.21,1.04-0.32,1.78-0.32,2.2c0,0.42,0.09,0.5,0.27,0.21c0.21-0.32,0.55-0.93,1.01-1.83
			c0.46-0.9,0.97-1.9,1.54-3c0.57-1.1,1.12-2.17,1.67-3.24C803.13,609.02,803.57,608.15,803.88,607.48z"/>
		<path d="M815.87,595.65c0.49,0,0.8,0.12,0.93,0.34c0.12,0.23,0.13,0.5,0.03,0.82c-0.11,0.32-0.29,0.64-0.56,0.95
			c-0.27,0.32-0.54,0.57-0.82,0.74h-5.89c-1.31,3.22-2.37,6.1-3.18,8.65c-0.81,2.55-1.44,4.69-1.88,6.42
			c-0.44,1.73-0.72,3.01-0.82,3.82c-0.11,0.81-0.07,1.08,0.11,0.8c0.21-0.32,0.57-0.95,1.06-1.88c0.49-0.94,1.04-1.96,1.64-3.08
			c0.6-1.11,1.19-2.2,1.78-3.26c0.58-1.06,1.03-1.87,1.35-2.44c0.14-0.21,0.3-0.39,0.48-0.53c0.18-0.14,0.34-0.2,0.48-0.19
			c0.14,0.02,0.22,0.12,0.24,0.29c0.02,0.18-0.08,0.48-0.29,0.9c-0.21,0.42-0.6,1.16-1.17,2.2c-0.57,1.04-1.16,2.15-1.78,3.32
			c-0.62,1.17-1.2,2.27-1.75,3.32c-0.55,1.04-0.93,1.74-1.14,2.1c-0.42,0.78-0.88,1.36-1.35,1.75c-0.48,0.39-0.89,0.48-1.25,0.27
			c-0.35-0.21-0.6-0.77-0.74-1.67c-0.14-0.9-0.1-2.24,0.13-4c0.23-1.77,0.69-4.02,1.38-6.76c0.69-2.74,1.69-6.07,3-10
			c-1.7-0.03-3.1-0.05-4.22-0.05s-1.85-0.02-2.2-0.05c0.18-0.32,0.36-0.64,0.56-0.98c0.2-0.34,0.43-0.7,0.72-1.09
			c0.25,0,0.89-0.03,1.94-0.08c1.04-0.05,2.4-0.11,4.06-0.19c0.32-0.92,0.65-1.87,1.01-2.86c0.35-0.99,0.72-2.02,1.11-3.08
			c0.14-0.39,0.4-0.57,0.77-0.53c0.37,0.04,0.75,0.18,1.14,0.42c0.39,0.25,0.75,0.56,1.09,0.93c0.34,0.37,0.54,0.68,0.61,0.93
			c-0.32,0.71-0.63,1.39-0.93,2.04c-0.3,0.65-0.59,1.3-0.88,1.94c1.34-0.07,2.48-0.12,3.39-0.16
			C814.93,595.67,815.55,595.65,815.87,595.65z"/>
		<path d="M821.44,607.48c0.14-0.21,0.3-0.39,0.48-0.53c0.18-0.14,0.34-0.2,0.48-0.19c0.14,0.02,0.21,0.12,0.21,0.29
			c0,0.18-0.11,0.48-0.32,0.9c-0.21,0.42-0.62,1.17-1.22,2.23c-0.6,1.06-1.25,2.19-1.94,3.39c-0.69,1.2-1.35,2.33-1.99,3.37
			c-0.64,1.04-1.08,1.76-1.33,2.15c-0.71,1.1-1.32,1.73-1.83,1.91c-0.51,0.18-0.87-0.12-1.06-0.9c-0.19-0.78-0.19-2.03,0.03-3.77
			c0.21-1.73,0.71-3.98,1.48-6.74c-0.81,0.18-1.64,0.25-2.49,0.21c-0.85-0.03-1.64-0.19-2.39-0.48c-0.74-0.28-1.24-0.81-1.48-1.59
			c-0.25-0.78-0.3-1.55-0.16-2.31c0.14-0.76,0.47-1.41,0.98-1.94c0.51-0.53,1.18-0.71,1.99-0.53c1.17,0.32,1.13,1.7-0.11,4.14
			c0.53,0.11,1.14,0.1,1.83-0.03c0.69-0.12,1.38-0.35,2.07-0.69c0.69-0.34,1.33-0.79,1.91-1.35c0.58-0.57,1.02-1.26,1.3-2.07
			c0.25,0.07,0.44,0.26,0.58,0.56c0.14,0.3,0.22,0.66,0.24,1.09c0.02,0.42-0.02,0.88-0.11,1.38c-0.09,0.5-0.22,0.96-0.4,1.38
			c-0.11,0.18-0.21,0.32-0.32,0.42c-0.11,0.11-0.23,0.23-0.37,0.37c-0.49,1.34-0.94,2.67-1.33,3.98c-0.39,1.31-0.71,2.47-0.95,3.47
			c-0.25,1.01-0.4,1.77-0.45,2.28c-0.05,0.51,0.01,0.65,0.19,0.4c0.25-0.35,0.66-1.01,1.25-1.96c0.58-0.95,1.2-1.99,1.86-3.1
			c0.65-1.11,1.29-2.2,1.91-3.26C820.6,608.91,821.09,608.08,821.44,607.48z M810.35,604.46c-0.28-0.11-0.52-0.08-0.72,0.08
			c-0.2,0.16-0.33,0.37-0.4,0.64c-0.07,0.27-0.06,0.55,0.03,0.85c0.09,0.3,0.27,0.52,0.56,0.66c0.32-0.6,0.54-1.1,0.66-1.51
			C810.61,604.77,810.57,604.53,810.35,604.46z"/>
		<path d="M833.53,607.59c0.14-0.25,0.28-0.43,0.42-0.56c0.14-0.12,0.27-0.16,0.37-0.11c0.11,0.05,0.17,0.19,0.19,0.4
			c0.02,0.21-0.05,0.5-0.19,0.85c-0.21,0.53-0.47,1.14-0.77,1.83c-0.3,0.69-0.65,1.38-1.03,2.07c-0.39,0.69-0.83,1.34-1.33,1.96
			c-0.49,0.62-1.04,1.12-1.64,1.51c-0.28,0.71-0.65,1.42-1.09,2.15c-0.44,0.73-0.96,1.36-1.57,1.91c-0.6,0.55-1.28,0.96-2.04,1.25
			c-0.76,0.28-1.62,0.32-2.57,0.11c-0.95-0.25-1.72-0.84-2.28-1.78c-0.57-0.94-0.95-2.02-1.14-3.26c-0.19-1.24-0.23-2.55-0.11-3.92
			s0.41-2.65,0.85-3.82c0.44-1.17,1.01-2.15,1.7-2.94c0.69-0.8,1.51-1.21,2.47-1.25c0.11-0.03,0.27-0.02,0.48,0.05
			c0.42-0.39,0.89-0.66,1.41-0.82c0.51-0.16,1.07-0.15,1.67,0.03c0.88,0.21,1.59,0.64,2.12,1.27c0.53,0.64,0.9,1.41,1.11,2.33
			c0.21,0.92,0.28,1.94,0.21,3.05c-0.07,1.11-0.25,2.25-0.53,3.42c0,0.14-0.02,0.25-0.05,0.32c0.71-0.74,1.32-1.66,1.83-2.76
			C832.53,609.78,833.04,608.69,833.53,607.59z M822.82,619.42c0.95,0.35,1.8,0.21,2.55-0.42c0.74-0.64,1.36-1.52,1.86-2.65
			c-0.18,0-0.34,0-0.48,0c-0.14,0-0.3-0.02-0.48-0.05c-0.78-0.14-1.45-0.41-2.02-0.8c-0.57-0.39-1.03-0.87-1.38-1.43
			c-0.35-0.57-0.61-1.19-0.77-1.88c-0.16-0.69-0.24-1.41-0.24-2.15c-0.32,0.92-0.57,1.88-0.74,2.89c-0.18,1.01-0.25,1.96-0.21,2.86
			c0.04,0.9,0.2,1.68,0.5,2.33C821.71,618.77,822.18,619.2,822.82,619.42z M826.96,606.16c-0.57-0.14-1.09-0.06-1.57,0.24
			c-0.48,0.3-0.88,0.73-1.22,1.3c-0.34,0.57-0.58,1.21-0.72,1.94c-0.14,0.73-0.15,1.43-0.03,2.12c0.12,0.69,0.42,1.33,0.88,1.91
			c0.46,0.58,1.13,1,2.02,1.25c0.28,0.07,0.53,0.12,0.74,0.13c0.21,0.02,0.42,0.03,0.64,0.03c0.32-0.92,0.54-1.88,0.66-2.89
			c0.12-1.01,0.16-1.94,0.11-2.78c-0.05-0.85-0.2-1.57-0.45-2.17C827.77,606.62,827.42,606.26,826.96,606.16z"/>
		<path d="M839.58,607.54c0.14-0.21,0.3-0.39,0.48-0.53c0.18-0.14,0.34-0.2,0.48-0.19c0.14,0.02,0.21,0.12,0.21,0.29
			c0,0.18-0.11,0.48-0.32,0.9c-0.21,0.42-0.58,1.16-1.11,2.2c-0.53,1.04-1.09,2.15-1.67,3.32c-0.58,1.17-1.13,2.27-1.64,3.32
			c-0.51,1.04-0.88,1.76-1.09,2.15c-0.46,0.85-0.96,1.42-1.51,1.72c-0.55,0.3-1.01,0.23-1.38-0.21c-0.37-0.44-0.61-1.31-0.72-2.6
			c-0.11-1.29,0.04-3.08,0.42-5.38c0.39-2.3,1.07-5.15,2.04-8.54s2.34-7.43,4.11-12.09c0.14-0.39,0.39-0.57,0.74-0.53
			c0.35,0.04,0.73,0.18,1.14,0.42c0.41,0.25,0.77,0.56,1.09,0.93c0.32,0.37,0.51,0.68,0.58,0.93c-2.16,4.46-3.79,8.31-4.91,11.56
			c-1.11,3.25-1.88,5.9-2.31,7.93c-0.42,2.03-0.61,3.47-0.56,4.3c0.05,0.83,0.17,1.09,0.34,0.77c0.21-0.32,0.56-0.95,1.03-1.88
			c0.48-0.94,0.99-1.96,1.54-3.08c0.55-1.11,1.1-2.19,1.64-3.24C838.77,608.96,839.23,608.14,839.58,607.54z"/>
		<path d="M851.09,607.59c0.11-0.25,0.23-0.44,0.37-0.58c0.14-0.14,0.27-0.2,0.4-0.19c0.12,0.02,0.2,0.12,0.24,0.32
			c0.03,0.19-0.02,0.5-0.16,0.93c-0.6,1.63-1.26,3.23-1.99,4.8c-0.73,1.57-1.53,2.98-2.41,4.22c-0.88,1.24-1.85,2.23-2.89,2.97
			c-1.04,0.74-2.18,1.08-3.42,1.01c-1.06-0.04-1.93-0.52-2.6-1.46c-0.67-0.94-1.13-2.09-1.38-3.45c-0.25-1.36-0.28-2.83-0.11-4.4
			c0.18-1.57,0.58-3.01,1.22-4.32c0.64-1.31,1.5-2.39,2.6-3.24c1.1-0.85,2.44-1.22,4.03-1.11c1.1,0.07,1.9,0.43,2.41,1.09
			c0.51,0.65,0.79,1.46,0.82,2.41c0.03,0.96-0.14,2.01-0.53,3.16c-0.39,1.15-0.96,2.25-1.7,3.31c-0.74,1.06-1.63,2.01-2.65,2.84
			c-1.03,0.83-2.16,1.41-3.39,1.72c0.35,1.13,0.97,1.77,1.86,1.91c1.45,0.14,2.92-0.74,4.4-2.65
			C847.69,614.96,849.32,611.87,851.09,607.59z M844.78,606c-0.67-0.14-1.32,0.09-1.94,0.69c-0.62,0.6-1.17,1.4-1.64,2.39
			c-0.48,0.99-0.86,2.09-1.14,3.29c-0.28,1.2-0.41,2.33-0.37,3.39c1.31-0.42,2.41-1.14,3.32-2.15c0.9-1.01,1.58-2.06,2.04-3.16
			c0.46-1.1,0.67-2.08,0.64-2.94C845.64,606.64,845.34,606.14,844.78,606z"/>
		<path class="st3" d="M873.25,600.51c-2.51,0.05-4.55,2.14-4.55,4.66c0,2.52,2.04,4.53,4.55,4.48c2.51-0.05,4.55-2.14,4.55-4.66
			C877.8,602.47,875.76,600.46,873.25,600.51"/>
		<path class="st3" d="M884.94,596.75c-2.51,0.05-4.55,2.14-4.55,4.66c0,2.52,2.04,4.53,4.55,4.48c2.51-0.05,4.55-2.14,4.55-4.66
			C889.49,598.71,887.45,596.7,884.94,596.75"/>
		<path class="st3" d="M898.28,594.46c-2.51,0.05-4.55,2.14-4.55,4.66c0,2.52,2.04,4.53,4.55,4.48c2.51-0.05,4.55-2.14,4.55-4.66
			C902.84,596.41,900.8,594.41,898.28,594.46"/>
		<path class="st3" d="M910.22,596.24c-2.51,0.05-4.55,2.14-4.55,4.66c0,2.52,2.04,4.53,4.55,4.48c2.51-0.05,4.55-2.14,4.55-4.66
			S912.73,596.18,910.22,596.24"/>
		<path class="st3" d="M922.64,600.55c-2.51,0.05-4.55,2.14-4.55,4.66c0,2.52,2.04,4.53,4.55,4.48c2.51-0.05,4.55-2.14,4.55-4.66
			C927.2,602.5,925.16,600.5,922.64,600.55"/>
		<path class="st3" d="M934.8,604.87c-2.51,0.05-4.55,2.14-4.55,4.66c0,2.52,2.04,4.53,4.55,4.48c2.51-0.05,4.55-2.14,4.55-4.66
			C939.35,606.82,937.32,604.82,934.8,604.87"/>
		<path class="st3" d="M948.94,607.13c-2.51,0.05-4.55,2.14-4.55,4.66c0,2.52,2.04,4.53,4.55,4.48c2.51-0.05,4.55-2.14,4.55-4.66
			C953.49,609.08,951.45,607.08,948.94,607.13"/>
		<path class="st3" d="M960.9,602.31c-2.51,0.05-4.55,2.14-4.55,4.66c0,2.52,2.04,4.53,4.55,4.48c2.51-0.05,4.55-2.14,4.55-4.66
			C965.45,604.27,963.41,602.26,960.9,602.31"/>
		<path class="st3" d="M973.59,597.48c-2.51,0.05-4.55,2.14-4.55,4.66c0,2.52,2.04,4.53,4.55,4.48c2.51-0.05,4.55-2.14,4.55-4.66
			C978.14,599.44,976.1,597.43,973.59,597.48"/>
		<path class="st3" d="M985.02,592.68c-2.51,0.05-4.55,2.14-4.55,4.66c0,2.52,2.04,4.53,4.55,4.48c2.51-0.05,4.55-2.14,4.55-4.66
			C989.57,594.63,987.53,592.63,985.02,592.68"/>
		<path class="st3" d="M996.29,591.93c-2.51,0.05-4.55,2.14-4.55,4.66c0,2.52,2.04,4.53,4.55,4.48c2.51-0.05,4.55-2.14,4.55-4.66
			C1000.84,593.88,998.81,591.88,996.29,591.93"/>
		<path class="st3" d="M1007.56,594.24c-2.51,0.05-4.55,2.14-4.55,4.66c0,2.52,2.04,4.53,4.55,4.48c2.51-0.05,4.55-2.14,4.55-4.66
			C1012.12,596.2,1010.08,594.19,1007.56,594.24"/>
		<path class="st3" d="M1018.84,596.03c-2.51,0.05-4.55,2.14-4.55,4.66c0,2.52,2.04,4.53,4.55,4.48c2.51-0.05,4.55-2.14,4.55-4.66
			C1023.39,597.99,1021.35,595.98,1018.84,596.03"/>
		<path class="st3" d="M1030.11,599.85c-2.51,0.05-4.55,2.14-4.55,4.66c0,2.52,2.04,4.53,4.55,4.48c2.51-0.05,4.55-2.14,4.55-4.66
			C1034.66,601.8,1032.62,599.8,1030.11,599.85"/>
		<path class="st3" d="M1041.38,601.64c-2.51,0.05-4.55,2.14-4.55,4.66c0,2.52,2.04,4.53,4.55,4.48c2.51-0.05,4.55-2.14,4.55-4.66
			C1045.93,603.59,1043.89,601.59,1041.38,601.64"/>
		<path class="st3" d="M1052.31,601.42c-2.51,0.05-4.55,2.14-4.55,4.66c0,2.52,2.04,4.53,4.55,4.48c2.51-0.05,4.55-2.14,4.55-4.66
			C1056.87,603.37,1054.83,601.37,1052.31,601.42"/>
		<path class="st3" d="M1064,597.66c-2.51,0.05-4.55,2.14-4.55,4.66c0,2.52,2.04,4.53,4.55,4.48c2.51-0.05,4.55-2.14,4.55-4.66
			C1068.56,599.61,1066.52,597.61,1064,597.66"/>
		<path class="st3" d="M1077.35,595.36c-2.51,0.05-4.55,2.14-4.55,4.66c0,2.52,2.04,4.53,4.55,4.48c2.51-0.05,4.55-2.14,4.55-4.66
			C1081.9,597.31,1079.86,595.31,1077.35,595.36"/>
		<path class="st3" d="M1089.29,597.14c-2.51,0.05-4.55,2.14-4.55,4.66c0,2.52,2.04,4.53,4.55,4.48c2.51-0.05,4.55-2.14,4.55-4.66
			C1093.84,599.09,1091.8,597.09,1089.29,597.14"/>
		<path class="st3" d="M1101.71,601.45c-2.51,0.05-4.55,2.14-4.55,4.66c0,2.52,2.04,4.53,4.55,4.48c2.51-0.05,4.55-2.14,4.55-4.66
			C1106.26,603.41,1104.22,601.4,1101.71,601.45"/>
		<path class="st3" d="M1113.87,605.77c-2.51,0.05-4.55,2.14-4.55,4.66c0,2.52,2.04,4.53,4.55,4.48c2.51-0.05,4.55-2.14,4.55-4.66
			C1118.42,607.73,1116.38,605.72,1113.87,605.77"/>
		<path class="st3" d="M1128,608.03c-2.51,0.05-4.55,2.14-4.55,4.66c0,2.52,2.04,4.53,4.55,4.48c2.51-0.05,4.55-2.14,4.55-4.66
			C1132.56,609.98,1130.52,607.98,1128,608.03"/>
		<path class="st3" d="M1139.97,603.22c-2.51,0.05-4.55,2.14-4.55,4.66c0,2.52,2.04,4.53,4.55,4.48c2.51-0.05,4.55-2.14,4.55-4.66
			C1144.52,605.17,1142.48,603.17,1139.97,603.22"/>
		<path class="st3" d="M1152.65,598.39c-2.51,0.05-4.55,2.14-4.55,4.66c0,2.52,2.04,4.53,4.55,4.48c2.51-0.05,4.55-2.14,4.55-4.66
			C1157.2,600.34,1155.17,598.34,1152.65,598.39"/>
		<path class="st3" d="M1164.09,593.59c-2.51,0.05-4.55,2.14-4.55,4.66c0,2.52,2.04,4.53,4.55,4.48c2.51-0.05,4.55-2.14,4.55-4.66
			C1168.64,595.54,1166.6,593.53,1164.09,593.59"/>
		<path class="st3" d="M1175.36,592.83c-2.51,0.05-4.55,2.14-4.55,4.66c0,2.52,2.04,4.53,4.55,4.48c2.51-0.05,4.55-2.14,4.55-4.66
			C1179.91,594.78,1177.87,592.78,1175.36,592.83"/>
		<path class="st3" d="M1186.63,595.15c-2.51,0.05-4.55,2.14-4.55,4.66c0,2.52,2.04,4.53,4.55,4.48c2.51-0.05,4.55-2.14,4.55-4.66
			C1191.18,597.1,1189.15,595.1,1186.63,595.15"/>
		<path class="st3" d="M1197.9,596.94c-2.51,0.05-4.55,2.14-4.55,4.66c0,2.52,2.04,4.53,4.55,4.48c2.51-0.05,4.55-2.14,4.55-4.66
			C1202.46,598.89,1200.42,596.89,1197.9,596.94"/>
		<path class="st3" d="M1209.18,600.75c-2.51,0.05-4.55,2.14-4.55,4.66c0,2.52,2.04,4.53,4.55,4.48c2.51-0.05,4.55-2.14,4.55-4.66
			C1213.73,602.71,1211.69,600.7,1209.18,600.75"/>
		<path class="st3" d="M1220.45,602.54c-2.51,0.05-4.55,2.14-4.55,4.66c0,2.52,2.04,4.53,4.55,4.48c2.51-0.05,4.55-2.14,4.55-4.66
			C1225,604.5,1222.96,602.49,1220.45,602.54"/>
		<path class="st3" d="M59.55,599.06c-2.51,0.05-4.55,2.14-4.55,4.66c0,2.52,2.04,4.53,4.55,4.48c2.51-0.05,4.55-2.14,4.55-4.66
			C64.1,601.01,62.07,599.01,59.55,599.06"/>
		<path class="st3" d="M71.24,595.3c-2.51,0.05-4.55,2.14-4.55,4.66c0,2.52,2.04,4.53,4.55,4.48c2.51-0.05,4.55-2.14,4.55-4.66
			C75.79,597.25,73.76,595.25,71.24,595.3"/>
		<path class="st3" d="M84.59,593c-2.51,0.05-4.55,2.14-4.55,4.66c0,2.52,2.04,4.53,4.55,4.48c2.51-0.05,4.55-2.14,4.55-4.66
			C89.14,594.96,87.1,592.95,84.59,593"/>
		<path class="st3" d="M96.52,594.78c-2.51,0.05-4.55,2.14-4.55,4.66c0,2.52,2.04,4.53,4.55,4.48c2.51-0.05,4.55-2.14,4.55-4.66
			C101.08,596.73,99.04,594.73,96.52,594.78"/>
		<path class="st3" d="M108.95,599.1c-2.51,0.05-4.55,2.14-4.55,4.66c0,2.52,2.04,4.53,4.55,4.48c2.51-0.05,4.55-2.14,4.55-4.66
			C113.5,601.05,111.46,599.04,108.95,599.1"/>
		<path class="st3" d="M121.11,603.42c-2.51,0.05-4.55,2.14-4.55,4.66c0,2.52,2.04,4.53,4.55,4.48c2.51-0.05,4.55-2.14,4.55-4.66
			C125.66,605.37,123.62,603.36,121.11,603.42"/>
		<path class="st3" d="M135.24,605.67c-2.51,0.05-4.55,2.14-4.55,4.66c0,2.52,2.04,4.53,4.55,4.48c2.51-0.05,4.55-2.14,4.55-4.66
			C139.8,607.63,137.76,605.62,135.24,605.67"/>
		<path class="st3" d="M147.21,600.86c-2.51,0.05-4.55,2.14-4.55,4.66c0,2.52,2.04,4.53,4.55,4.48c2.51-0.05,4.55-2.14,4.55-4.66
			C151.76,602.81,149.72,600.81,147.21,600.86"/>
		<path class="st3" d="M159.89,596.03c-2.51,0.05-4.55,2.14-4.55,4.66c0,2.52,2.04,4.53,4.55,4.48c2.51-0.05,4.55-2.14,4.55-4.66
			C164.44,597.98,162.41,595.98,159.89,596.03"/>
		<path class="st3" d="M171.33,591.23c-2.51,0.05-4.55,2.14-4.55,4.66c0,2.52,2.04,4.53,4.55,4.48c2.51-0.05,4.55-2.14,4.55-4.66
			C175.88,593.18,173.84,591.18,171.33,591.23"/>
		<path class="st3" d="M182.6,590.47c-2.51,0.05-4.55,2.14-4.55,4.66c0,2.52,2.04,4.53,4.55,4.48c2.51-0.05,4.55-2.14,4.55-4.66
			C187.15,592.42,185.11,590.42,182.6,590.47"/>
		<path class="st3" d="M193.87,592.79c-2.51,0.05-4.55,2.14-4.55,4.66c0,2.52,2.04,4.53,4.55,4.48c2.51-0.05,4.55-2.14,4.55-4.66
			C198.42,594.74,196.38,592.74,193.87,592.79"/>
		<path class="st3" d="M205.14,594.58c-2.51,0.05-4.55,2.14-4.55,4.66c0,2.52,2.04,4.53,4.55,4.48c2.51-0.05,4.55-2.14,4.55-4.66
			C209.69,596.53,207.66,594.53,205.14,594.58"/>
		<path class="st3" d="M216.41,598.39c-2.51,0.05-4.55,2.14-4.55,4.66c0,2.52,2.04,4.53,4.55,4.48c2.51-0.05,4.55-2.14,4.55-4.66
			C220.97,600.35,218.93,598.34,216.41,598.39"/>
		<path class="st3" d="M227.69,600.19c-2.51,0.05-4.55,2.14-4.55,4.66c0,2.52,2.04,4.53,4.55,4.48c2.51-0.05,4.55-2.14,4.55-4.66
			C232.24,602.14,230.2,600.13,227.69,600.19"/>
		<path class="st3" d="M238.62,599.96c-2.51,0.05-4.55,2.14-4.55,4.66c0,2.52,2.04,4.53,4.55,4.48c2.51-0.05,4.55-2.14,4.55-4.66
			C243.17,601.91,241.13,599.91,238.62,599.96"/>
		<path class="st3" d="M250.31,596.2c-2.51,0.05-4.55,2.14-4.55,4.66c0,2.52,2.04,4.53,4.55,4.48c2.51-0.05,4.55-2.14,4.55-4.66
			C254.86,598.15,252.82,596.15,250.31,596.2"/>
		<path class="st3" d="M263.66,593.91c-2.51,0.05-4.55,2.14-4.55,4.66c0,2.52,2.04,4.53,4.55,4.48c2.51-0.05,4.55-2.14,4.55-4.66
			C268.21,595.86,266.17,593.85,263.66,593.91"/>
		<path class="st3" d="M275.59,595.68c-2.51,0.05-4.55,2.14-4.55,4.66s2.04,4.53,4.55,4.48c2.51-0.05,4.55-2.14,4.55-4.66
			C280.14,597.64,278.11,595.63,275.59,595.68"/>
		<path class="st3" d="M288.02,600c-2.51,0.05-4.55,2.14-4.55,4.66c0,2.52,2.04,4.53,4.55,4.48c2.51-0.05,4.55-2.14,4.55-4.66
			C292.57,601.95,290.53,599.95,288.02,600"/>
		<path class="st3" d="M300.17,604.32c-2.51,0.05-4.55,2.14-4.55,4.66c0,2.52,2.04,4.53,4.55,4.48c2.51-0.05,4.55-2.14,4.55-4.66
			C304.73,606.27,302.69,604.27,300.17,604.32"/>
		<path class="st3" d="M314.31,606.58c-2.51,0.05-4.55,2.14-4.55,4.66c0,2.52,2.04,4.53,4.55,4.48c2.51-0.05,4.55-2.14,4.55-4.66
			C318.86,608.53,316.83,606.52,314.31,606.58"/>
		<path class="st3" d="M326.27,601.76c-2.51,0.05-4.55,2.14-4.55,4.66c0,2.52,2.04,4.53,4.55,4.48c2.51-0.05,4.55-2.14,4.55-4.66
			C330.83,603.72,328.79,601.71,326.27,601.76"/>
		<path class="st3" d="M338.96,596.93c-2.51,0.05-4.55,2.14-4.55,4.66c0,2.52,2.04,4.53,4.55,4.48c2.51-0.05,4.55-2.14,4.55-4.66
			C343.51,598.89,341.47,596.88,338.96,596.93"/>
		<path class="st3" d="M350.39,592.13c-2.51,0.05-4.55,2.14-4.55,4.66c0,2.52,2.04,4.53,4.55,4.48c2.51-0.05,4.55-2.14,4.55-4.66
			C354.95,594.08,352.91,592.08,350.39,592.13"/>
		<path class="st3" d="M361.67,591.38c-2.51,0.05-4.55,2.14-4.55,4.66c0,2.52,2.04,4.53,4.55,4.48c2.51-0.05,4.55-2.14,4.55-4.66
			C366.22,593.33,364.18,591.32,361.67,591.38"/>
		<path class="st3" d="M372.94,593.69c-2.51,0.05-4.55,2.14-4.55,4.66c0,2.52,2.04,4.53,4.55,4.48c2.51-0.05,4.55-2.14,4.55-4.66
			C377.49,595.64,375.45,593.64,372.94,593.69"/>
		<path class="st3" d="M384.21,595.48c-2.51,0.05-4.55,2.14-4.55,4.66c0,2.52,2.04,4.53,4.55,4.48c2.51-0.05,4.55-2.14,4.55-4.66
			C388.76,597.44,386.72,595.43,384.21,595.48"/>
		<path class="st3" d="M395.48,599.3c-2.51,0.05-4.55,2.14-4.55,4.66c0,2.52,2.04,4.53,4.55,4.48c2.51-0.05,4.55-2.14,4.55-4.66
			C400.03,601.25,398,599.25,395.48,599.3"/>
		<path class="st3" d="M406.75,601.09c-2.51,0.05-4.55,2.14-4.55,4.66c0,2.52,2.04,4.53,4.55,4.48c2.51-0.05,4.55-2.14,4.55-4.66
			C411.31,603.04,409.27,601.04,406.75,601.09"/>
	</g>
</g>
</svg>
