<?xml version="1.0" encoding="UTF-8" standalone="no"?>
<!-- Generator: Adobe Illustrator 23.0.0, SVG Export Plug-In . SVG Version: 6.00 Build 0)  -->

<svg
   xmlns:dc="http://purl.org/dc/elements/1.1/"
   xmlns:cc="http://creativecommons.org/ns#"
   xmlns:rdf="http://www.w3.org/1999/02/22-rdf-syntax-ns#"
   xmlns:svg="http://www.w3.org/2000/svg"
   xmlns="http://www.w3.org/2000/svg"
   xmlns:sodipodi="http://sodipodi.sourceforge.net/DTD/sodipodi-0.dtd"
   xmlns:inkscape="http://www.inkscape.org/namespaces/inkscape"
   version="1.1"
   id="Camada_1"
   x="0px"
   y="0px"
   viewBox="0 0 1280 1024"
   style="enable-background:new 0 0 1280 1024;"
   xml:space="preserve"
   sodipodi:docname="logo_only.svg"
   inkscape:version="0.92.4 (5da689c313, 2019-01-14)"><metadata
   id="metadata4201"><rdf:RDF><cc:Work
       rdf:about=""><dc:format>image/svg+xml</dc:format><dc:type
         rdf:resource="http://purl.org/dc/dcmitype/StillImage" /><dc:title></dc:title></cc:Work></rdf:RDF></metadata><defs
   id="defs4199" /><sodipodi:namedview
   pagecolor="#ffffff"
   bordercolor="#666666"
   borderopacity="1"
   objecttolerance="10"
   gridtolerance="10"
   guidetolerance="10"
   inkscape:pageopacity="0"
   inkscape:pageshadow="2"
   inkscape:window-width="1680"
   inkscape:window-height="1050"
   id="namedview4197"
   showgrid="true"
   inkscape:zoom="0.95"
   inkscape:cx="657.09377"
   inkscape:cy="512"
   inkscape:window-x="0"
   inkscape:window-y="32"
   inkscape:window-maximized="1"
   inkscape:current-layer="Camada_1"><inkscape:grid
     type="xygrid"
     id="grid4203" /></sodipodi:namedview>
<style
   type="text/css"
   id="style3958">
	.st0{fill:#053E5B;}
	.st1{fill:#8C0404;}
	.st2{fill:#02374C;}
	.st3{fill:#EDAF03;}
</style>
<g
   id="g4194">
	<path
   class="st0"
   d="M800.24,440.49l3.86,5.08c0.79,1.04,2.27,1.24,3.31,0.45l13.7-10.43l-6.92-9.09l-13.44,10.24   C799.57,437.63,799.35,439.31,800.24,440.49"
   id="path3960" />
	<path
   class="st0"
   d="M806.47,527.91l3.86-5.08c0.79-1.04,2.27-1.24,3.31-0.45l13.7,10.43l-6.92,9.09l-13.44-10.24   C805.8,530.77,805.57,529.09,806.47,527.91"
   id="path3962" />
	<path
   class="st0"
   d="M680.92,440.45l-3.86,5.08c-0.79,1.04-2.27,1.24-3.31,0.45l-13.7-10.43l6.92-9.09l13.44,10.24   C681.59,437.6,681.82,439.28,680.92,440.45"
   id="path3964" />
	<path
   class="st0"
   d="M674.39,527.91l-3.86-5.08c-0.79-1.04-2.27-1.24-3.31-0.45l-13.7,10.43l6.92,9.09l13.44-10.24   C675.06,530.77,675.29,529.09,674.39,527.91"
   id="path3966" />
	<path
   class="st0"
   d="M659.87,423.25c-2.95,0-5.34,2.39-5.34,5.34c0,2.94,2.38,5.33,5.32,5.34l5.15-6.76   C664.37,424.91,662.32,423.25,659.87,423.25"
   id="path3968" />
	<path
   class="st0"
   d="M671.13,413.93c-3.26,5.65-7.04,9.58-8.43,8.78c-1.39-0.8,0.12-6.04,3.39-11.69c3.26-5.65,7.04-9.58,8.43-8.78   C675.91,403.04,674.4,408.28,671.13,413.93"
   id="path3970" />
	<path
   class="st0"
   d="M652.13,445.21c-3.66,5.4-7.71,9.05-9.04,8.15c-1.33-0.9,0.56-6.01,4.22-11.42c3.66-5.4,7.71-9.05,9.04-8.15   C657.67,434.7,655.79,439.81,652.13,445.21"
   id="path3972" />
	<path
   class="st0"
   d="M648.5,538.48c-0.76,2.85,0.94,5.78,3.79,6.54c2.85,0.76,5.76-0.93,6.53-3.77l-5.21-6.71   C651.26,534.56,649.13,536.11,648.5,538.48"
   id="path3974" />
	<path
   class="st0"
   d="M642.38,525.2c4.63,4.61,7.45,9.26,6.32,10.4c-1.14,1.14-5.81-1.67-10.43-6.27c-4.62-4.6-7.45-9.26-6.32-10.4   C633.09,517.79,637.76,520.6,642.38,525.2"
   id="path3976" />
	<path
   class="st0"
   d="M667.74,551.6c4.28,4.92,6.77,9.77,5.56,10.83c-1.21,1.06-5.67-2.08-9.95-7c-4.28-4.92-6.77-9.77-5.56-10.83   C659,543.54,663.46,546.68,667.74,551.6"
   id="path3978" />
	<path
   class="st0"
   d="M827.16,545.12c2.95-0.09,5.27-2.55,5.18-5.5c-0.09-2.94-2.54-5.26-5.48-5.18l-4.94,6.91   C822.61,543.59,824.71,545.19,827.16,545.12"
   id="path3980" />
	<path
   class="st0"
   d="M816.18,554.77c3.09-5.75,6.75-9.79,8.17-9.03c1.42,0.76,0.06,6.04-3.04,11.79c-3.09,5.75-6.75,9.79-8.17,9.03   C811.73,565.8,813.09,560.52,816.18,554.77"
   id="path3982" />
	<path
   class="st0"
   d="M834.24,522.93c3.5-5.51,7.43-9.28,8.79-8.42c1.36,0.86-0.38,6.03-3.87,11.54c-3.5,5.51-7.43,9.28-8.79,8.42   C829.01,533.61,830.75,528.44,834.24,522.93"
   id="path3984" />
	<path
   class="st0"
   d="M825.96,430.11c0.82-2.84-0.82-5.8-3.65-6.62c-2.83-0.82-5.78,0.81-6.61,3.63l5.07,6.82   C823.11,433.97,825.28,432.47,825.96,430.11"
   id="path3986" />
	<path
   class="st0"
   d="M831.79,443.52c-4.53-4.7-7.25-9.42-6.1-10.54c1.16-1.12,5.77,1.79,10.29,6.5c4.52,4.7,7.25,9.42,6.09,10.54   C840.93,451.13,836.32,448.22,831.79,443.52"
   id="path3988" />
	<path
   class="st0"
   d="M807.01,416.58c-4.18-5.02-6.56-9.92-5.32-10.95c1.24-1.03,5.63,2.2,9.8,7.22c4.18,5.02,6.56,9.92,5.32,10.94   C815.57,424.83,811.18,421.59,807.01,416.58"
   id="path3990" />
	<path
   class="st1"
   d="M56.94,506.39c-0.23,0-0.45-0.06-0.66-0.17c-0.44-0.24-0.71-0.69-0.71-1.19v-29.41c0-0.49,0.27-0.95,0.71-1.19   c0.21-0.11,0.43-0.17,0.66-0.17c0.25,0,0.51,0.07,0.73,0.21l23.39,14.7c0.4,0.25,0.64,0.68,0.64,1.15c0,0.47-0.24,0.9-0.64,1.15   l-23.39,14.71C57.45,506.32,57.2,506.39,56.94,506.39"
   id="path3992" />
	<polyline
   class="st2"
   points="222.79,567.81 222.79,567.81 222.79,503.94 176.85,423.95 214.91,423.95 239.05,466.14    263.36,423.95 301.42,423.95 255.48,503.94 255.48,567.81 222.79,567.81  "
   id="polyline3994" />
	<path
   class="st2"
   d="M369.45,412.74h55.05c42.54,0,77.52,34.62,76.69,77.15c-0.79,41.08-34.38,74.18-75.65,74.18h-56.09V412.74z    M409.62,524.84h16.3c16.63,0,31.52-11.09,35.5-27.23c5.76-23.38-12.21-44.69-34.98-44.69h-16.82V524.84z"
   id="path3996" />
	<path
   class="st2"
   d="M606.18,564.07l-23.41-40.17h-24.63v40.17h-40.17V412.74h64.43c30.99,0,56.27,25.02,56.27,55.69   c0,16.14-7.14,30.67-18.15,40.76l32.42,54.88H606.18z M558.14,489.34h24.94c10.51,0,19.82-7.36,21.66-17.71   c2.5-14.11-8.08-26.2-21.69-26.2h-24.91V489.34z"
   id="path3998" />
	<path
   class="st2"
   d="M739.83,412.22c41.82,0,75.77,34.15,75.77,75.97c0,41.82-33.94,75.57-75.77,75.57   c-41.82,0-75.57-33.74-75.57-75.57C664.26,446.37,698,412.22,739.83,412.22 M739.87,441.82c-26.11,0-47.43,21.32-47.43,47.7   c0,26.11,21.32,47.7,47.43,47.7c26.38,0,47.7-21.58,47.7-47.7C787.57,463.13,766.25,441.82,739.87,441.82"
   id="path4000" />
	<polygon
   class="st2"
   points="959.35,564.07 887.89,492.44 887.89,564.07 848.66,564.07 848.66,412.74 864.81,412.74 936.47,484.17    936.47,412.74 975.7,412.74 975.7,564.07  "
   id="polygon4002" />
	<polygon
   class="st2"
   points="1000.92,412.74 1095.27,412.74 1095.27,445.43 1041.09,445.43 1041.09,469.72 1088.73,469.72    1088.73,503.35 1041.09,503.35 1041.09,531.37 1095.27,531.37 1095.27,564.07 1000.92,564.07  "
   id="polygon4004" />
	<path
   class="st2"
   d="M1179.85,458.51c0-7.23-7.02-13.12-14.5-11.1c-3.95,1.07-7.02,4.31-7.97,8.29   c-1.78,7.48,3.8,14.11,10.96,14.11c14.73,0,28.05,7.06,36.53,17.96c5.22,6.53,8.6,14.38,9.7,23.01   c3.53,27.75-18.36,52.72-46.33,52.66c-25.78-0.06-46.51-20.42-46.51-47.02h35.31c0,7.39,6.62,12.93,14.08,11.17   c3.98-0.94,7.23-4,8.31-7.95c2.04-7.49-3.85-14.52-11.1-14.52c-29.98,0-52.89-27.72-44.76-59.2c4.08-15.81,16.54-28.3,32.37-32.27   c31.23-7.85,59,15,59,44.85H1179.85z"
   id="path4006" />
	<path
   class="st2"
   d="M158.41,485.91c5.85-7.46,9.69-16.95,9.69-27.24c0-24.21-20.58-45-44.79-45H56.51v55.86   c0.61,0,1.21,0.17,1.74,0.5l27.89,17.64c0.45,0.29,0.86,0.65,1.11,1.12c0.9,1.65,0.32,3.52-1.08,4.4l-27.92,17.66   c-0.53,0.34-1.13,0.5-1.74,0.5V565h74.66c24.01,0,44.39-20.38,44.39-44.39C175.56,506.89,168.7,494.18,158.41,485.91 M95.75,446.37   h18.68c7.37,0,13.68,6.03,13.51,13.4c-0.17,7.09-5.94,12.75-13.07,12.75H95.75V446.37z M121.9,532.31H95.75v-26.16h26.56   c6.84,0,13.08,5.83,13.08,13.08c0,7.24-5.83,13.08-13.08,13.08"
   id="path4008" />
	<g
   id="g4192">
		
		
		
		
		
		
		
		
		
		
		
		
		
		
		
		
		
		
		
		
		
		
		
		
		
		
		
		
		
		
		
		
		
		
		
		
		
		
		
		
		
		
		
		
		
		
		
		
		
		
		
		
		
		
		
		
		
		
		
		
		
		
		
		
		
		
		
		
		
		
		
		
		
		
		
		
		
		
		
		
		
		
		
		
		
		
		
		
		
		
		
	</g>
</g>
</svg>